solid Untitled-68780a00
facet normal 1.0 1.90712103995473e-015 -1.78666230456451e-015
  outer loop
    vertex 63.0478800000001 -7.10397359999988 2.33510666666664
    vertex 63.0478800000001 -9.43908026666654 -2.50272025326126e-014
    vertex 63.0478800000001 -7.10397359999988 -2.50272025326126e-014
  endloop
endfacet
facet normal 1.0 1.90712103995473e-015 -1.78666230456451e-015
  outer loop
    vertex 63.0478800000001 -9.43908026666654 -2.50272025326126e-014
    vertex 63.0478800000001 -7.10397359999988 2.33510666666664
    vertex 63.0478800000001 -9.43908026666641 0.0489077186402324
  endloop
endfacet
facet normal 1.0 1.90712103995473e-015 -1.78666230456451e-015
  outer loop
    vertex 63.0478800000001 -9.43908026666641 0.0489077186402324
    vertex 63.0478800000001 -7.10397359999988 2.33510666666664
    vertex 63.0478800000001 -9.43908026666654 2.33510666666664
  endloop
endfacet
facet normal -3.94745964311166e-016 -4.06469384673153e-031 -1.0
  outer loop
    vertex -63.0478799999998 -7.10397360000011 2.47485898441369e-014
    vertex 63.0478800000001 -9.43908026666654 -2.50272025326126e-014
    vertex -63.0478799999998 -9.43908026666678 2.47485898441369e-014
  endloop
endfacet
facet normal -3.94745964311166e-016 -4.06469384673153e-031 -1.0
  outer loop
    vertex 63.0478800000001 -9.43908026666654 -2.50272025326126e-014
    vertex -63.0478799999998 -7.10397360000011 2.47485898441369e-014
    vertex 63.0478800000001 -7.10397359999988 -2.50272025326126e-014
  endloop
endfacet
facet normal -1.0 -5.21336613683796e-015 2.09721647667422e-015
  outer loop
    vertex -63.0478799999998 -9.43908026666664 0.0489077186402822
    vertex -63.0478799999998 -7.10397360000011 2.47485898441369e-014
    vertex -63.0478799999998 -9.43908026666678 2.47485898441369e-014
  endloop
endfacet
facet normal -1.0 -5.21336613683796e-015 2.09721647667422e-015
  outer loop
    vertex -63.0478799999998 -7.10397360000011 2.47485898441369e-014
    vertex -63.0478799999998 -9.43908026666664 0.0489077186402822
    vertex -63.0478799999998 -7.10397360000011 2.33510666666669
  endloop
endfacet
facet normal -1.0 -5.21336613683796e-015 2.09721647667422e-015
  outer loop
    vertex -63.0478799999998 -7.10397360000011 2.33510666666669
    vertex -63.0478799999998 -9.43908026666664 0.0489077186402822
    vertex -63.0478799999998 -9.43908026666678 2.33510666666669
  endloop
endfacet
facet normal 1.85208607090957e-015 -1.0 2.71399791338335e-012
  outer loop
    vertex -63.0478799999998 -9.43908026666664 0.0489077186402822
    vertex 63.0478800000001 -9.43908026666654 -2.50272025326126e-014
    vertex 63.0478800000001 -9.43908026666641 0.0489077186402324
  endloop
endfacet
facet normal 1.85208607090957e-015 -1.0 2.71399791338335e-012
  outer loop
    vertex 63.0478800000001 -9.43908026666654 -2.50272025326126e-014
    vertex -63.0478799999998 -9.43908026666664 0.0489077186402822
    vertex -63.0478799999998 -9.43908026666678 2.47485898441369e-014
  endloop
endfacet
facet normal 3.94745964311166e-016 2.27636190075259e-030 1.0
  outer loop
    vertex 63.0478800000001 -9.43908026666654 2.33510666666664
    vertex 62.4641033333334 -8.85530359999988 2.33510666666664
    vertex -62.4641033333332 -8.85530360000011 2.33510666666669
  endloop
endfacet
facet normal 3.94745964311166e-016 2.27636190075259e-030 1.0
  outer loop
    vertex 62.4641033333334 -8.85530359999988 2.33510666666664
    vertex 63.0478800000001 -9.43908026666654 2.33510666666664
    vertex 63.0478800000001 -7.10397359999988 2.33510666666664
  endloop
endfacet
facet normal 3.94745964311166e-016 2.27636190075259e-030 1.0
  outer loop
    vertex 62.4641033333334 -8.85530359999988 2.33510666666664
    vertex 63.0478800000001 -7.10397359999988 2.33510666666664
    vertex 62.4641033333334 -7.68775026666654 2.33510666666664
  endloop
endfacet
facet normal 3.94745964311166e-016 2.27636190075259e-030 1.0
  outer loop
    vertex 62.4641033333334 -7.68775026666654 2.33510666666664
    vertex 63.0478800000001 -7.10397359999988 2.33510666666664
    vertex -63.0478799999998 -7.10397360000011 2.33510666666669
  endloop
endfacet
facet normal 3.94745964311166e-016 2.27636190075259e-030 1.0
  outer loop
    vertex -63.0478799999998 -9.43908026666678 2.33510666666669
    vertex -62.4641033333332 -8.85530360000011 2.33510666666669
    vertex -63.0478799999998 -7.10397360000011 2.33510666666669
  endloop
endfacet
facet normal 3.94745964311166e-016 2.27636190075259e-030 1.0
  outer loop
    vertex -62.4641033333332 -8.85530360000011 2.33510666666669
    vertex -63.0478799999998 -9.43908026666678 2.33510666666669
    vertex 63.0478800000001 -9.43908026666654 2.33510666666664
  endloop
endfacet
facet normal 3.94745964311166e-016 2.27636190075259e-030 1.0
  outer loop
    vertex -63.0478799999998 -7.10397360000011 2.33510666666669
    vertex -62.4641033333332 -8.85530360000011 2.33510666666669
    vertex -62.4641033333332 -7.68775026666678 2.33510666666669
  endloop
endfacet
facet normal 3.94745964311166e-016 2.27636190075259e-030 1.0
  outer loop
    vertex -63.0478799999998 -7.10397360000011 2.33510666666669
    vertex -62.4641033333332 -7.68775026666678 2.33510666666669
    vertex 62.4641033333334 -7.68775026666654 2.33510666666664
  endloop
endfacet
facet normal 1.85208607090848e-015 -1.0 -5.80594468616059e-014
  outer loop
    vertex -63.0478799999998 -9.43908026666678 2.33510666666669
    vertex 63.0478800000001 -9.43908026666641 0.0489077186402324
    vertex 63.0478800000001 -9.43908026666654 2.33510666666664
  endloop
endfacet
facet normal 1.85208607090848e-015 -1.0 -5.80594468616059e-014
  outer loop
    vertex 63.0478800000001 -9.43908026666641 0.0489077186402324
    vertex -63.0478799999998 -9.43908026666678 2.33510666666669
    vertex -63.0478799999998 -9.43908026666664 0.0489077186402822
  endloop
endfacet
facet normal -1.8520860709085e-015 1.0 1.51928766931454e-030
  outer loop
    vertex 63.0478800000001 -7.10397359999988 -2.50272025326126e-014
    vertex -63.0478799999998 -7.10397360000011 2.33510666666669
    vertex 63.0478800000001 -7.10397359999988 2.33510666666664
  endloop
endfacet
facet normal -1.8520860709085e-015 1.0 1.51928766931454e-030
  outer loop
    vertex -63.0478799999998 -7.10397360000011 2.33510666666669
    vertex 63.0478800000001 -7.10397359999988 -2.50272025326126e-014
    vertex -63.0478799999998 -7.10397360000011 2.47485898441369e-014
  endloop
endfacet
facet normal 1.0 1.43523749407621e-014 -3.98435178930898e-016
  outer loop
    vertex -62.4641033333332 -7.68775026666678 2.33510666666669
    vertex -62.4641033333332 -8.85530360000011 0.875665000000025
    vertex -62.4641033333332 -7.68775026666678 0.875665000000025
  endloop
endfacet
facet normal 1.0 1.43523749407621e-014 -3.98435178930898e-016
  outer loop
    vertex -62.4641033333332 -8.85530360000011 0.875665000000025
    vertex -62.4641033333332 -7.68775026666678 2.33510666666669
    vertex -62.4641033333332 -8.85530360000011 2.33510666666669
  endloop
endfacet
facet normal -1.868072667594e-015 1.0 -3.55865909973403e-030
  outer loop
    vertex -62.4641033333332 -8.85530360000011 0.875665000000025
    vertex 62.4641033333334 -8.85530359999988 2.33510666666664
    vertex 62.4641033333334 -8.85530359999988 0.875664999999975
  endloop
endfacet
facet normal -1.868072667594e-015 1.0 -3.55865909973403e-030
  outer loop
    vertex 62.4641033333334 -8.85530359999988 2.33510666666664
    vertex -62.4641033333332 -8.85530360000011 0.875665000000025
    vertex -62.4641033333332 -8.85530360000011 2.33510666666669
  endloop
endfacet
facet normal -1.0 -3.69423390436061e-015 3.98435178930898e-016
  outer loop
    vertex 62.4641033333334 -8.85530359999988 2.33510666666664
    vertex 62.4641033333334 -7.68775026666654 0.875664999999975
    vertex 62.4641033333334 -8.85530359999988 0.875664999999975
  endloop
endfacet
facet normal -1.0 -3.69423390436061e-015 3.98435178930898e-016
  outer loop
    vertex 62.4641033333334 -7.68775026666654 0.875664999999975
    vertex 62.4641033333334 -8.85530359999988 2.33510666666664
    vertex 62.4641033333334 -7.68775026666654 2.33510666666664
  endloop
endfacet
facet normal 3.98435178930897e-016 4.30296496730275e-030 1.0
  outer loop
    vertex 62.4641033333334 -8.85530359999988 0.875664999999975
    vertex -62.4641033333332 -7.68775026666678 0.875665000000025
    vertex -62.4641033333332 -8.85530360000011 0.875665000000025
  endloop
endfacet
facet normal 3.98435178930897e-016 4.30296496730275e-030 1.0
  outer loop
    vertex -62.4641033333332 -7.68775026666678 0.875665000000025
    vertex 62.4641033333334 -8.85530359999988 0.875664999999975
    vertex 62.4641033333334 -7.68775026666654 0.875664999999975
  endloop
endfacet
facet normal 1.868072667594e-015 -1.0 3.55865909973403e-030
  outer loop
    vertex -62.4641033333332 -7.68775026666678 2.33510666666669
    vertex 62.4641033333334 -7.68775026666654 0.875664999999975
    vertex 62.4641033333334 -7.68775026666654 2.33510666666664
  endloop
endfacet
facet normal 1.868072667594e-015 -1.0 3.55865909973403e-030
  outer loop
    vertex 62.4641033333334 -7.68775026666654 0.875664999999975
    vertex -62.4641033333332 -7.68775026666678 2.33510666666669
    vertex -62.4641033333332 -7.68775026666678 0.875665000000025
  endloop
endfacet
facet normal -7.09130040542205e-016 1.0 -4.90161146785616e-019
  outer loop
    vertex 6.41443830973197 -14.2907765999998 -0.0489059772970863
    vertex 63.0478800000002 -14.2907765999997 2.33510666666665
    vertex 63.0498964868154 -14.2907765999997 1.74134318356987e-006
  endloop
endfacet
facet normal -7.09130040542205e-016 1.0 -4.90161146785616e-019
  outer loop
    vertex 63.0478800000002 -14.2907765999997 2.33510666666665
    vertex 6.41443830973197 -14.2907765999998 -0.0489059772970863
    vertex 6.41242182291683 -14.2907765999998 2.28619894802638
  endloop
endfacet
facet normal -0.999999627138335 -1.41520172792642e-016 -0.000863552657275024
  outer loop
    vertex 6.41242182291683 -16.6258832666665 2.28619894802638
    vertex 6.41443830973197 -14.2907765999998 -0.0489059772970863
    vertex 6.41443830973197 -16.6258832666665 -0.0489059772970863
  endloop
endfacet
facet normal -0.999999627138335 -1.41520172792642e-016 -0.000863552657275024
  outer loop
    vertex 6.41443830973197 -14.2907765999998 -0.0489059772970863
    vertex 6.41242182291683 -16.6258832666665 2.28619894802638
    vertex 6.41242182291683 -14.2907765999998 2.28619894802638
  endloop
endfacet
facet normal 0.0008635526572688 -3.01601949061032e-019 -0.999999627138335
  outer loop
    vertex 6.41443830973197 -14.2907765999998 -0.0489059772970863
    vertex 63.0498964868154 -16.6258832666664 1.74134318356987e-006
    vertex 6.41443830973197 -16.6258832666665 -0.0489059772970863
  endloop
endfacet
facet normal 0.0008635526572688 -3.01601949061032e-019 -0.999999627138335
  outer loop
    vertex 63.0498964868154 -16.6258832666664 1.74134318356987e-006
    vertex 6.41443830973197 -14.2907765999998 -0.0489059772970863
    vertex 63.0498964868154 -14.2907765999997 1.74134318356987e-006
  endloop
endfacet
facet normal 0.999999627138335 1.41520172792642e-016 0.000863552657275025
  outer loop
    vertex 63.0478800000002 -14.2907765999997 2.33510666666665
    vertex 63.0498964868154 -16.6258832666664 1.74134318356987e-006
    vertex 63.0498964868154 -14.2907765999997 1.74134318356987e-006
  endloop
endfacet
facet normal 0.999999627138335 1.41520172792642e-016 0.000863552657275025
  outer loop
    vertex 63.0498964868154 -16.6258832666664 1.74134318356987e-006
    vertex 63.0478800000002 -14.2907765999997 2.33510666666665
    vertex 63.0478800000002 -16.6258832666664 2.33510666666665
  endloop
endfacet
facet normal -0.000863552657268727 -1.22210166839702e-019 0.999999627138335
  outer loop
    vertex 63.0478800000002 -16.6258832666664 2.33510666666665
    vertex 62.4641035510015 -16.0421065999997 2.3346025447749
    vertex 6.99619827191554 -16.0421065999998 2.28670306991813
  endloop
endfacet
facet normal -0.000863552657268727 -1.22210166839702e-019 0.999999627138335
  outer loop
    vertex 62.4641035510015 -16.0421065999997 2.3346025447749
    vertex 63.0478800000002 -16.6258832666664 2.33510666666665
    vertex 63.0478800000002 -14.2907765999997 2.33510666666665
  endloop
endfacet
facet normal -0.000863552657268727 -1.22210166839702e-019 0.999999627138335
  outer loop
    vertex 62.4641035510015 -16.0421065999997 2.3346025447749
    vertex 63.0478800000002 -14.2907765999997 2.33510666666665
    vertex 62.4641035510015 -14.8745532666664 2.3346025447749
  endloop
endfacet
facet normal -0.000863552657268727 -1.22210166839702e-019 0.999999627138335
  outer loop
    vertex 62.4641035510015 -14.8745532666664 2.3346025447749
    vertex 63.0478800000002 -14.2907765999997 2.33510666666665
    vertex 6.41242182291683 -14.2907765999998 2.28619894802638
  endloop
endfacet
facet normal -0.000863552657268727 -1.22210166839702e-019 0.999999627138335
  outer loop
    vertex 6.41242182291683 -16.6258832666665 2.28619894802638
    vertex 6.99619827191554 -16.0421065999998 2.28670306991813
    vertex 6.41242182291683 -14.2907765999998 2.28619894802638
  endloop
endfacet
facet normal -0.000863552657268727 -1.22210166839702e-019 0.999999627138335
  outer loop
    vertex 6.99619827191554 -16.0421065999998 2.28670306991813
    vertex 6.41242182291683 -16.6258832666665 2.28619894802638
    vertex 63.0478800000002 -16.6258832666664 2.33510666666665
  endloop
endfacet
facet normal -0.000863552657268727 -1.22210166839702e-019 0.999999627138335
  outer loop
    vertex 6.41242182291683 -14.2907765999998 2.28619894802638
    vertex 6.99619827191554 -16.0421065999998 2.28670306991813
    vertex 6.99619827191554 -14.8745532666665 2.28670306991813
  endloop
endfacet
facet normal -0.000863552657268727 -1.22210166839702e-019 0.999999627138335
  outer loop
    vertex 6.41242182291683 -14.2907765999998 2.28619894802638
    vertex 6.99619827191554 -14.8745532666665 2.28670306991813
    vertex 62.4641035510015 -14.8745532666664 2.3346025447749
  endloop
endfacet
facet normal 7.09130040542205e-016 -1.0 4.90161146786256e-019
  outer loop
    vertex 63.0478800000002 -16.6258832666664 2.33510666666665
    vertex 6.41443830973197 -16.6258832666665 -0.0489059772970863
    vertex 63.0498964868154 -16.6258832666664 1.74134318356987e-006
  endloop
endfacet
facet normal 7.09130040542205e-016 -1.0 4.90161146786256e-019
  outer loop
    vertex 6.41443830973197 -16.6258832666665 -0.0489059772970863
    vertex 63.0478800000002 -16.6258832666664 2.33510666666665
    vertex 6.41242182291683 -16.6258832666665 2.28619894802638
  endloop
endfacet
facet normal -0.999999627138335 -1.41520172792642e-016 -0.000863552657268814
  outer loop
    vertex 62.4641035510015 -16.0421065999997 2.3346025447749
    vertex 62.4653638557309 -14.8745532666664 0.875161422278085
    vertex 62.4653638557309 -16.0421065999997 0.875161422278085
  endloop
endfacet
facet normal -0.999999627138335 -1.41520172792642e-016 -0.000863552657268814
  outer loop
    vertex 62.4653638557309 -14.8745532666664 0.875161422278085
    vertex 62.4641035510015 -16.0421065999997 2.3346025447749
    vertex 62.4641035510015 -14.8745532666664 2.3346025447749
  endloop
endfacet
facet normal 0.999999627138335 1.41520172792642e-016 0.000863552657268814
  outer loop
    vertex 6.99619827191554 -14.8745532666665 2.28670306991813
    vertex 6.99745857664492 -16.0421065999998 0.827261947421318
    vertex 6.99745857664492 -14.8745532666665 0.827261947421318
  endloop
endfacet
facet normal 0.999999627138335 1.41520172792642e-016 0.000863552657268814
  outer loop
    vertex 6.99745857664492 -16.0421065999998 0.827261947421318
    vertex 6.99619827191554 -14.8745532666665 2.28670306991813
    vertex 6.99619827191554 -16.0421065999998 2.28670306991813
  endloop
endfacet
facet normal -0.000863552657268812 -4.2749379268091e-018 0.999999627138335
  outer loop
    vertex 62.4653638557309 -16.0421065999997 0.875161422278085
    vertex 6.99745857664492 -14.8745532666665 0.827261947421318
    vertex 6.99745857664492 -16.0421065999998 0.827261947421318
  endloop
endfacet
facet normal -0.000863552657268812 -4.2749379268091e-018 0.999999627138335
  outer loop
    vertex 6.99745857664492 -14.8745532666665 0.827261947421318
    vertex 62.4653638557309 -16.0421065999997 0.875161422278085
    vertex 62.4653638557309 -14.8745532666664 0.875161422278085
  endloop
endfacet
facet normal 7.0238593326967e-016 -1.0 -3.66839205550863e-018
  outer loop
    vertex 62.4641035510015 -14.8745532666664 2.3346025447749
    vertex 6.99745857664492 -14.8745532666665 0.827261947421318
    vertex 62.4653638557309 -14.8745532666664 0.875161422278085
  endloop
endfacet
facet normal 7.0238593326967e-016 -1.0 -3.66839205550863e-018
  outer loop
    vertex 6.99745857664492 -14.8745532666665 0.827261947421318
    vertex 62.4641035510015 -14.8745532666664 2.3346025447749
    vertex 6.99619827191554 -14.8745532666665 2.28670306991813
  endloop
endfacet
facet normal -7.0238593326967e-016 1.0 3.66839205550863e-018
  outer loop
    vertex 6.99745857664492 -16.0421065999998 0.827261947421318
    vertex 62.4641035510015 -16.0421065999997 2.3346025447749
    vertex 62.4653638557309 -16.0421065999997 0.875161422278085
  endloop
endfacet
facet normal -7.0238593326967e-016 1.0 3.66839205550863e-018
  outer loop
    vertex 62.4641035510015 -16.0421065999997 2.3346025447749
    vertex 6.99745857664492 -16.0421065999998 0.827261947421318
    vertex 6.99619827191554 -16.0421065999998 2.28670306991813
  endloop
endfacet
facet normal 4.26089589421986e-016 1.0 -4.90161146785616e-019
  outer loop
    vertex -63.049896486815 -14.2907766000001 0.0489077186402674
    vertex -63.0478799999999 -14.2907766000001 2.38401264396373
    vertex -6.41443830973161 -14.2907766000001 -2.46747067222941e-015
  endloop
endfacet
facet normal 4.26089589421986e-016 1.0 -4.90161146785616e-019
  outer loop
    vertex -6.41242182291647 -14.2907766000001 2.33510492532347
    vertex -6.41443830973161 -14.2907766000001 -2.46747067222941e-015
    vertex -63.0478799999999 -14.2907766000001 2.38401264396373
  endloop
endfacet
facet normal 0.999999627138335 1.41520172792642e-016 -0.000863552657275024
  outer loop
    vertex -6.41443830973161 -16.6258832666668 -2.46747067222941e-015
    vertex -6.41443830973161 -14.2907766000001 -2.46747067222941e-015
    vertex -6.41242182291647 -16.6258832666668 2.33510492532347
  endloop
endfacet
facet normal 0.999999627138335 1.41520172792642e-016 -0.000863552657275024
  outer loop
    vertex -6.41242182291647 -14.2907766000001 2.33510492532347
    vertex -6.41242182291647 -16.6258832666668 2.33510492532347
    vertex -6.41443830973161 -14.2907766000001 -2.46747067222941e-015
  endloop
endfacet
facet normal -0.0008635526572688 -5.46022282740458e-019 -0.999999627138335
  outer loop
    vertex -6.41443830973161 -16.6258832666668 -2.46747067222941e-015
    vertex -63.049896486815 -16.6258832666668 0.0489077186402674
    vertex -6.41443830973161 -14.2907766000001 -2.46747067222941e-015
  endloop
endfacet
facet normal -0.0008635526572688 -5.46022282740458e-019 -0.999999627138335
  outer loop
    vertex -63.049896486815 -14.2907766000001 0.0489077186402674
    vertex -6.41443830973161 -14.2907766000001 -2.46747067222941e-015
    vertex -63.049896486815 -16.6258832666668 0.0489077186402674
  endloop
endfacet
facet normal -0.999999627138335 -1.41520172792642e-016 0.000863552657275025
  outer loop
    vertex -63.049896486815 -14.2907766000001 0.0489077186402674
    vertex -63.049896486815 -16.6258832666668 0.0489077186402674
    vertex -63.0478799999999 -14.2907766000001 2.38401264396373
  endloop
endfacet
facet normal -0.999999627138335 -1.41520172792642e-016 0.000863552657275025
  outer loop
    vertex -63.0478799999999 -16.6258832666668 2.38401264396373
    vertex -63.0478799999999 -14.2907766000001 2.38401264396373
    vertex -63.049896486815 -16.6258832666668 0.0489077186402674
  endloop
endfacet
facet normal 0.000863552657268727 1.22210166839702e-019 0.999999627138335
  outer loop
    vertex -6.99619827191518 -16.0421066000001 2.33560904721522
    vertex -62.4641035510012 -16.0421066000001 2.38350852207198
    vertex -63.0478799999999 -16.6258832666668 2.38401264396373
  endloop
endfacet
facet normal 0.000863552657268727 1.22210166839702e-019 0.999999627138335
  outer loop
    vertex -63.0478799999999 -14.2907766000001 2.38401264396373
    vertex -63.0478799999999 -16.6258832666668 2.38401264396373
    vertex -62.4641035510012 -16.0421066000001 2.38350852207198
  endloop
endfacet
facet normal 0.000863552657268727 1.22210166839702e-019 0.999999627138335
  outer loop
    vertex -62.4641035510012 -14.8745532666668 2.38350852207198
    vertex -63.0478799999999 -14.2907766000001 2.38401264396373
    vertex -62.4641035510012 -16.0421066000001 2.38350852207198
  endloop
endfacet
facet normal 0.000863552657268727 1.22210166839702e-019 0.999999627138335
  outer loop
    vertex -6.41242182291647 -14.2907766000001 2.33510492532347
    vertex -63.0478799999999 -14.2907766000001 2.38401264396373
    vertex -62.4641035510012 -14.8745532666668 2.38350852207198
  endloop
endfacet
facet normal 0.000863552657268727 1.22210166839702e-019 0.999999627138335
  outer loop
    vertex -6.41242182291647 -14.2907766000001 2.33510492532347
    vertex -6.99619827191518 -16.0421066000001 2.33560904721522
    vertex -6.41242182291647 -16.6258832666668 2.33510492532347
  endloop
endfacet
facet normal 0.000863552657268727 1.22210166839702e-019 0.999999627138335
  outer loop
    vertex -63.0478799999999 -16.6258832666668 2.38401264396373
    vertex -6.41242182291647 -16.6258832666668 2.33510492532347
    vertex -6.99619827191518 -16.0421066000001 2.33560904721522
  endloop
endfacet
facet normal 0.000863552657268727 1.22210166839702e-019 0.999999627138335
  outer loop
    vertex -6.99619827191518 -14.8745532666668 2.33560904721522
    vertex -6.99619827191518 -16.0421066000001 2.33560904721522
    vertex -6.41242182291647 -14.2907766000001 2.33510492532347
  endloop
endfacet
facet normal 0.000863552657268727 1.22210166839702e-019 0.999999627138335
  outer loop
    vertex -62.4641035510012 -14.8745532666668 2.38350852207198
    vertex -6.99619827191518 -14.8745532666668 2.33560904721522
    vertex -6.41242182291647 -14.2907766000001 2.33510492532347
  endloop
endfacet
facet normal -4.26089589421986e-016 -1.0 4.90161146786256e-019
  outer loop
    vertex -63.049896486815 -16.6258832666668 0.0489077186402674
    vertex -6.41443830973161 -16.6258832666668 -2.46747067222941e-015
    vertex -63.0478799999999 -16.6258832666668 2.38401264396373
  endloop
endfacet
facet normal -4.26089589421986e-016 -1.0 4.90161146786256e-019
  outer loop
    vertex -6.41242182291647 -16.6258832666668 2.33510492532347
    vertex -63.0478799999999 -16.6258832666668 2.38401264396373
    vertex -6.41443830973161 -16.6258832666668 -2.46747067222941e-015
  endloop
endfacet
facet normal 0.999999627138335 1.41520172792642e-016 -0.000863552657268814
  outer loop
    vertex -62.4653638557306 -16.0421066000001 0.924067399575169
    vertex -62.4653638557306 -14.8745532666668 0.924067399575169
    vertex -62.4641035510012 -16.0421066000001 2.38350852207198
  endloop
endfacet
facet normal 0.999999627138335 1.41520172792642e-016 -0.000863552657268814
  outer loop
    vertex -62.4641035510012 -14.8745532666668 2.38350852207198
    vertex -62.4641035510012 -16.0421066000001 2.38350852207198
    vertex -62.4653638557306 -14.8745532666668 0.924067399575169
  endloop
endfacet
facet normal -0.999999627138335 -1.41520172792642e-016 0.000863552657268814
  outer loop
    vertex -6.99745857664456 -14.8745532666668 0.876167924718402
    vertex -6.99745857664456 -16.0421066000001 0.876167924718402
    vertex -6.99619827191518 -14.8745532666668 2.33560904721522
  endloop
endfacet
facet normal -0.999999627138335 -1.41520172792642e-016 0.000863552657268814
  outer loop
    vertex -6.99619827191518 -16.0421066000001 2.33560904721522
    vertex -6.99619827191518 -14.8745532666668 2.33560904721522
    vertex -6.99745857664456 -16.0421066000001 0.876167924718402
  endloop
endfacet
facet normal 0.000863552657268812 -4.03051759312968e-018 0.999999627138335
  outer loop
    vertex -6.99745857664456 -16.0421066000001 0.876167924718402
    vertex -6.99745857664456 -14.8745532666668 0.876167924718402
    vertex -62.4653638557306 -16.0421066000001 0.924067399575169
  endloop
endfacet
facet normal 0.000863552657268812 -4.03051759312968e-018 0.999999627138335
  outer loop
    vertex -62.4653638557306 -14.8745532666668 0.924067399575169
    vertex -62.4653638557306 -16.0421066000001 0.924067399575169
    vertex -6.99745857664456 -14.8745532666668 0.876167924718402
  endloop
endfacet
facet normal -4.19345482149451e-016 -1.0 -3.66839205550863e-018
  outer loop
    vertex -62.4653638557306 -14.8745532666668 0.924067399575169
    vertex -6.99745857664456 -14.8745532666668 0.876167924718402
    vertex -62.4641035510012 -14.8745532666668 2.38350852207198
  endloop
endfacet
facet normal -4.19345482149451e-016 -1.0 -3.66839205550863e-018
  outer loop
    vertex -6.99619827191518 -14.8745532666668 2.33560904721522
    vertex -62.4641035510012 -14.8745532666668 2.38350852207198
    vertex -6.99745857664456 -14.8745532666668 0.876167924718402
  endloop
endfacet
facet normal 4.19345482149451e-016 1.0 3.66839205550863e-018
  outer loop
    vertex -62.4653638557306 -16.0421066000001 0.924067399575169
    vertex -62.4641035510012 -16.0421066000001 2.38350852207198
    vertex -6.99745857664456 -16.0421066000001 0.876167924718402
  endloop
endfacet
facet normal 4.19345482149451e-016 1.0 3.66839205550863e-018
  outer loop
    vertex -6.99619827191518 -16.0421066000001 2.33560904721522
    vertex -6.99745857664456 -16.0421066000001 0.876167924718402
    vertex -62.4641035510012 -16.0421066000001 2.38350852207198
  endloop
endfacet
facet normal -1.50645102988008e-016 1.0 -1.77635683940025e-015
  outer loop
    vertex -41.3021991666666 2.33510666666667 1.2952294052108e-014
    vertex 41.3021991666667 2.33510666666669 2.33510666666665
    vertex 41.3021991666667 2.33510666666668 -2.02315675323916e-014
  endloop
endfacet
facet normal -1.50645102988008e-016 1.0 -1.77635683940025e-015
  outer loop
    vertex 41.3021991666667 2.33510666666669 2.33510666666665
    vertex -41.3021991666666 2.33510666666667 1.2952294052108e-014
    vertex -41.3021991666666 2.33510666666668 2.33510666666668
  endloop
endfacet
facet normal 1.77635683940025e-015 1.0 -1.77635683940025e-015
  outer loop
    vertex 41.3021991666667 29.1888333333338 2.33510666666661
    vertex 43.6373058333333 29.1888333333338 -4.92674464188288e-014
    vertex 41.3021991666667 29.1888333333338 -4.92674464188288e-014
  endloop
endfacet
facet normal 1.77635683940025e-015 1.0 -1.77635683940025e-015
  outer loop
    vertex 43.6373058333333 29.1888333333338 -4.92674464188288e-014
    vertex 41.3021991666667 29.1888333333338 2.33510666666661
    vertex 43.6373058333333 29.1888333333338 2.33510666666661
  endloop
endfacet
facet normal -1.0 6.17863248487032e-016 -1.09754560726576e-030
  outer loop
    vertex 41.3021991666667 2.33510666666669 2.33510666666665
    vertex 41.3021991666667 29.1888333333338 -4.92674464188288e-014
    vertex 41.3021991666667 2.33510666666668 -2.02315675323916e-014
  endloop
endfacet
facet normal -1.0 6.17863248487032e-016 -1.09754560726576e-030
  outer loop
    vertex 41.3021991666667 29.1888333333338 -4.92674464188288e-014
    vertex 41.3021991666667 2.33510666666669 2.33510666666665
    vertex 41.3021991666667 29.1888333333338 2.33510666666661
  endloop
endfacet
facet normal 1.0 -2.35560363485684e-015 -8.88178419700121e-016
  outer loop
    vertex -41.3021991666666 29.1888333333335 -2.02315675323916e-014
    vertex -41.3021991666666 2.33510666666668 2.33510666666668
    vertex -41.3021991666666 2.33510666666667 1.2952294052108e-014
  endloop
endfacet
facet normal 1.0 -2.35560363485684e-015 -8.88178419700121e-016
  outer loop
    vertex -41.3021991666666 2.33510666666668 2.33510666666668
    vertex -41.3021991666666 29.1888333333335 -2.02315675323916e-014
    vertex -41.3021991666666 29.1888333333335 2.33510666666665
  endloop
endfacet
facet normal 1.48524819347848e-016 -1.0 1.77635683940025e-015
  outer loop
    vertex 43.6373058333333 1.71104286295076e-014 2.33510666666665
    vertex -43.6373058333333 0.0 1.71002767501704e-014
    vertex 43.6373058333333 1.29624459314452e-014 -1.60835848343292e-014
  endloop
endfacet
facet normal 1.48524819347848e-016 -1.0 1.77635683940025e-015
  outer loop
    vertex -43.6373058333333 0.0 1.71002767501704e-014
    vertex 43.6373058333333 1.71104286295076e-014 2.33510666666665
    vertex -43.6373058333333 4.14798269806245e-015 2.33510666666668
  endloop
endfacet
facet normal -1.0 2.39808173319033e-015 -4.25984888819564e-030
  outer loop
    vertex -43.6373058333333 4.14798269806245e-015 2.33510666666668
    vertex -43.6373058333333 29.1888333333335 -2.02315675323916e-014
    vertex -43.6373058333333 0.0 1.71002767501704e-014
  endloop
endfacet
facet normal -1.0 2.39808173319033e-015 -4.25984888819564e-030
  outer loop
    vertex -43.6373058333333 29.1888333333335 -2.02315675323916e-014
    vertex -43.6373058333333 4.14798269806245e-015 2.33510666666668
    vertex -43.6373058333333 29.1888333333335 2.33510666666665
  endloop
endfacet
facet normal 1.0 -5.68434188608071e-016 1.00974195868461e-030
  outer loop
    vertex 43.6373058333333 29.1888333333338 -4.92674464188288e-014
    vertex 43.6373058333333 1.71104286295076e-014 2.33510666666665
    vertex 43.6373058333333 1.29624459314452e-014 -1.60835848343292e-014
  endloop
endfacet
facet normal 1.0 -5.68434188608071e-016 1.00974195868461e-030
  outer loop
    vertex 43.6373058333333 1.71104286295076e-014 2.33510666666665
    vertex 43.6373058333333 29.1888333333338 -4.92674464188288e-014
    vertex 43.6373058333333 29.1888333333338 2.33510666666661
  endloop
endfacet
facet normal 3.55271367880051e-015 1.0 -1.77635683940025e-015
  outer loop
    vertex -43.6373058333333 29.1888333333335 2.33510666666665
    vertex -41.3021991666666 29.1888333333335 -2.02315675323916e-014
    vertex -43.6373058333333 29.1888333333335 -2.02315675323916e-014
  endloop
endfacet
facet normal 3.55271367880051e-015 1.0 -1.77635683940025e-015
  outer loop
    vertex -41.3021991666666 29.1888333333335 -2.02315675323916e-014
    vertex -43.6373058333333 29.1888333333335 2.33510666666665
    vertex -41.3021991666666 29.1888333333335 2.33510666666665
  endloop
endfacet
facet normal -3.65982540750819e-016 -1.18628674741953e-015 -1.0
  outer loop
    vertex -41.3021991666666 29.1888333333335 -2.02315675323916e-014
    vertex -41.3021991666666 2.33510666666667 1.2952294052108e-014
    vertex -43.6373058333333 29.1888333333335 -2.02315675323916e-014
  endloop
endfacet
facet normal -3.65982540750819e-016 -1.18628674741953e-015 -1.0
  outer loop
    vertex -43.6373058333333 0.0 1.71002767501704e-014
    vertex -41.3021991666666 2.33510666666667 1.2952294052108e-014
    vertex 43.6373058333333 1.29624459314452e-014 -1.60835848343292e-014
  endloop
endfacet
facet normal -3.65982540750819e-016 -1.18628674741953e-015 -1.0
  outer loop
    vertex -41.3021991666666 2.33510666666667 1.2952294052108e-014
    vertex -43.6373058333333 0.0 1.71002767501704e-014
    vertex -43.6373058333333 29.1888333333335 -2.02315675323916e-014
  endloop
endfacet
facet normal -3.65982540750819e-016 -1.18628674741953e-015 -1.0
  outer loop
    vertex 43.6373058333333 1.29624459314452e-014 -1.60835848343292e-014
    vertex -41.3021991666666 2.33510666666667 1.2952294052108e-014
    vertex 41.3021991666667 2.33510666666668 -2.02315675323916e-014
  endloop
endfacet
facet normal -3.65982540750819e-016 -1.18628674741953e-015 -1.0
  outer loop
    vertex 43.6373058333333 1.29624459314452e-014 -1.60835848343292e-014
    vertex 41.3021991666667 2.33510666666668 -2.02315675323916e-014
    vertex 41.3021991666667 29.1888333333338 -4.92674464188288e-014
  endloop
endfacet
facet normal -3.65982540750819e-016 -1.18628674741953e-015 -1.0
  outer loop
    vertex 43.6373058333333 1.29624459314452e-014 -1.60835848343292e-014
    vertex 41.3021991666667 29.1888333333338 -4.92674464188288e-014
    vertex 43.6373058333333 29.1888333333338 -4.92674464188288e-014
  endloop
endfacet
facet normal 3.90381376800874e-016 1.1801401839614e-015 1.0
  outer loop
    vertex -43.6373058333333 4.14798269806245e-015 2.33510666666668
    vertex -43.0535291666667 0.583776666666671 2.33510666666668
    vertex -43.6373058333333 29.1888333333335 2.33510666666665
  endloop
endfacet
facet normal 3.90381376800874e-016 1.1801401839614e-015 1.0
  outer loop
    vertex -43.0535291666667 0.583776666666671 2.33510666666668
    vertex -43.6373058333333 4.14798269806245e-015 2.33510666666668
    vertex 43.6373058333333 1.71104286295076e-014 2.33510666666665
  endloop
endfacet
facet normal 3.90381376800874e-016 1.1801401839614e-015 1.0
  outer loop
    vertex -43.0535291666667 0.583776666666671 2.33510666666668
    vertex 43.6373058333333 1.71104286295076e-014 2.33510666666665
    vertex 43.0535291666667 0.583776666666684 2.33510666666665
  endloop
endfacet
facet normal 3.90381376800874e-016 1.1801401839614e-015 1.0
  outer loop
    vertex 43.0535291666667 0.583776666666684 2.33510666666665
    vertex 43.6373058333333 1.71104286295076e-014 2.33510666666665
    vertex 43.0535291666667 28.6050566666672 2.33510666666661
  endloop
endfacet
facet normal 3.90381376800874e-016 1.1801401839614e-015 1.0
  outer loop
    vertex -41.8859758333333 1.75133000000001 2.33510666666668
    vertex -41.3021991666666 2.33510666666668 2.33510666666668
    vertex -41.8859758333333 28.6050566666668 2.33510666666665
  endloop
endfacet
facet normal 3.90381376800874e-016 1.1801401839614e-015 1.0
  outer loop
    vertex -41.3021991666666 2.33510666666668 2.33510666666668
    vertex -41.8859758333333 1.75133000000001 2.33510666666668
    vertex 41.8859758333333 1.75133000000002 2.33510666666665
  endloop
endfacet
facet normal 3.90381376800874e-016 1.1801401839614e-015 1.0
  outer loop
    vertex -41.3021991666666 2.33510666666668 2.33510666666668
    vertex 41.8859758333333 1.75133000000002 2.33510666666665
    vertex 41.3021991666667 2.33510666666669 2.33510666666665
  endloop
endfacet
facet normal 3.90381376800874e-016 1.1801401839614e-015 1.0
  outer loop
    vertex 41.3021991666667 2.33510666666669 2.33510666666665
    vertex 41.8859758333333 1.75133000000002 2.33510666666665
    vertex 41.3021991666667 29.1888333333338 2.33510666666661
  endloop
endfacet
facet normal 3.90381376800874e-016 1.1801401839614e-015 1.0
  outer loop
    vertex 41.3021991666667 29.1888333333338 2.33510666666661
    vertex 41.8859758333333 1.75133000000002 2.33510666666665
    vertex 41.8859758333333 28.6050566666672 2.33510666666661
  endloop
endfacet
facet normal 3.90381376800874e-016 1.1801401839614e-015 1.0
  outer loop
    vertex 41.3021991666667 29.1888333333338 2.33510666666661
    vertex 41.8859758333333 28.6050566666672 2.33510666666661
    vertex 43.6373058333333 29.1888333333338 2.33510666666661
  endloop
endfacet
facet normal 3.90381376800874e-016 1.1801401839614e-015 1.0
  outer loop
    vertex 43.6373058333333 29.1888333333338 2.33510666666661
    vertex 41.8859758333333 28.6050566666672 2.33510666666661
    vertex 43.0535291666667 28.6050566666672 2.33510666666661
  endloop
endfacet
facet normal 3.90381376800874e-016 1.1801401839614e-015 1.0
  outer loop
    vertex 43.6373058333333 29.1888333333338 2.33510666666661
    vertex 43.0535291666667 28.6050566666672 2.33510666666661
    vertex 43.6373058333333 1.71104286295076e-014 2.33510666666665
  endloop
endfacet
facet normal 3.90381376800874e-016 1.1801401839614e-015 1.0
  outer loop
    vertex -43.6373058333333 29.1888333333335 2.33510666666665
    vertex -43.0535291666666 28.6050566666668 2.33510666666665
    vertex -41.3021991666666 29.1888333333335 2.33510666666665
  endloop
endfacet
facet normal 3.90381376800874e-016 1.1801401839614e-015 1.0
  outer loop
    vertex -43.0535291666666 28.6050566666668 2.33510666666665
    vertex -43.6373058333333 29.1888333333335 2.33510666666665
    vertex -43.0535291666667 0.583776666666671 2.33510666666668
  endloop
endfacet
facet normal 3.90381376800874e-016 1.1801401839614e-015 1.0
  outer loop
    vertex -41.3021991666666 29.1888333333335 2.33510666666665
    vertex -43.0535291666666 28.6050566666668 2.33510666666665
    vertex -41.8859758333333 28.6050566666668 2.33510666666665
  endloop
endfacet
facet normal 3.90381376800874e-016 1.1801401839614e-015 1.0
  outer loop
    vertex -41.3021991666666 29.1888333333335 2.33510666666665
    vertex -41.8859758333333 28.6050566666668 2.33510666666665
    vertex -41.3021991666666 2.33510666666668 2.33510666666668
  endloop
endfacet
facet normal 3.66189952606682e-016 1.13281915131358e-015 1.0
  outer loop
    vertex -43.0535291666667 0.583776666666669 0.875665000000013
    vertex -41.8859758333333 1.75133000000001 0.875665000000013
    vertex -43.0535291666666 28.6050566666668 0.87566499999998
  endloop
endfacet
facet normal 3.66189952606682e-016 1.13281915131358e-015 1.0
  outer loop
    vertex -41.8859758333333 1.75133000000001 0.875665000000013
    vertex -43.0535291666667 0.583776666666669 0.875665000000013
    vertex 43.0535291666667 0.583776666666682 0.87566499999998
  endloop
endfacet
facet normal 3.66189952606682e-016 1.13281915131358e-015 1.0
  outer loop
    vertex -41.8859758333333 1.75133000000001 0.875665000000013
    vertex 43.0535291666667 0.583776666666682 0.87566499999998
    vertex 41.8859758333333 1.75133000000002 0.87566499999998
  endloop
endfacet
facet normal 3.66189952606682e-016 1.13281915131358e-015 1.0
  outer loop
    vertex 41.8859758333333 1.75133000000002 0.87566499999998
    vertex 43.0535291666667 0.583776666666682 0.87566499999998
    vertex 41.8859758333333 28.6050566666672 0.875664999999951
  endloop
endfacet
facet normal 3.66189952606682e-016 1.13281915131358e-015 1.0
  outer loop
    vertex 41.8859758333333 28.6050566666672 0.875664999999951
    vertex 43.0535291666667 0.583776666666682 0.87566499999998
    vertex 43.0535291666667 28.6050566666672 0.875664999999951
  endloop
endfacet
facet normal 3.66189952606682e-016 1.13281915131358e-015 1.0
  outer loop
    vertex -41.8859758333333 28.6050566666668 0.87566499999998
    vertex -43.0535291666666 28.6050566666668 0.87566499999998
    vertex -41.8859758333333 1.75133000000001 0.875665000000013
  endloop
endfacet
facet normal -1.50538715203412e-016 1.0 -1.12035784061757e-015
  outer loop
    vertex -43.0535291666667 0.583776666666669 0.875665000000013
    vertex 43.0535291666667 0.583776666666684 2.33510666666665
    vertex 43.0535291666667 0.583776666666682 0.87566499999998
  endloop
endfacet
facet normal -1.50538715203412e-016 1.0 -1.12035784061757e-015
  outer loop
    vertex 43.0535291666667 0.583776666666684 2.33510666666665
    vertex -43.0535291666667 0.583776666666669 0.875665000000013
    vertex -43.0535291666667 0.583776666666671 2.33510666666668
  endloop
endfacet
facet normal -1.0 5.9211894646674e-016 -3.36580652898573e-031
  outer loop
    vertex 43.0535291666667 0.583776666666684 2.33510666666665
    vertex 43.0535291666667 28.6050566666672 0.875664999999951
    vertex 43.0535291666667 0.583776666666682 0.87566499999998
  endloop
endfacet
facet normal -1.0 5.9211894646674e-016 -3.36580652898573e-031
  outer loop
    vertex 43.0535291666667 28.6050566666672 0.875664999999951
    vertex 43.0535291666667 0.583776666666684 2.33510666666665
    vertex 43.0535291666667 28.6050566666672 2.33510666666661
  endloop
endfacet
facet normal -3.5527136788005e-015 -1.0 0.0
  outer loop
    vertex 43.0535291666667 28.6050566666672 2.33510666666661
    vertex 41.8859758333333 28.6050566666672 0.875664999999951
    vertex 43.0535291666667 28.6050566666672 0.875664999999951
  endloop
endfacet
facet normal -3.5527136788005e-015 -1.0 0.0
  outer loop
    vertex 41.8859758333333 28.6050566666672 0.875664999999951
    vertex 43.0535291666667 28.6050566666672 2.33510666666661
    vertex 41.8859758333333 28.6050566666672 2.33510666666661
  endloop
endfacet
facet normal 1.0 -6.17863248487032e-016 3.51214594329001e-031
  outer loop
    vertex 41.8859758333333 28.6050566666672 0.875664999999951
    vertex 41.8859758333333 1.75133000000002 2.33510666666665
    vertex 41.8859758333333 1.75133000000002 0.87566499999998
  endloop
endfacet
facet normal 1.0 -6.17863248487032e-016 3.51214594329001e-031
  outer loop
    vertex 41.8859758333333 1.75133000000002 2.33510666666665
    vertex 41.8859758333333 28.6050566666672 0.875664999999951
    vertex 41.8859758333333 28.6050566666672 2.33510666666661
  endloop
endfacet
facet normal 1.51142660492795e-016 -1.0 1.12035784061757e-015
  outer loop
    vertex 41.8859758333333 1.75133000000002 2.33510666666665
    vertex -41.8859758333333 1.75133000000001 0.875665000000013
    vertex 41.8859758333333 1.75133000000002 0.87566499999998
  endloop
endfacet
facet normal 1.51142660492795e-016 -1.0 1.12035784061757e-015
  outer loop
    vertex -41.8859758333333 1.75133000000001 0.875665000000013
    vertex 41.8859758333333 1.75133000000002 2.33510666666665
    vertex -41.8859758333333 1.75133000000001 2.33510666666668
  endloop
endfacet
facet normal -1.0 2.35560363485684e-015 3.55271367880049e-016
  outer loop
    vertex -41.8859758333333 1.75133000000001 2.33510666666668
    vertex -41.8859758333333 28.6050566666668 0.87566499999998
    vertex -41.8859758333333 1.75133000000001 0.875665000000013
  endloop
endfacet
facet normal -1.0 2.35560363485684e-015 3.55271367880049e-016
  outer loop
    vertex -41.8859758333333 28.6050566666668 0.87566499999998
    vertex -41.8859758333333 1.75133000000001 2.33510666666668
    vertex -41.8859758333333 28.6050566666668 2.33510666666665
  endloop
endfacet
facet normal 0.0 -1.0 0.0
  outer loop
    vertex -41.8859758333333 28.6050566666668 2.33510666666665
    vertex -43.0535291666666 28.6050566666668 0.87566499999998
    vertex -41.8859758333333 28.6050566666668 0.87566499999998
  endloop
endfacet
facet normal 0.0 -1.0 0.0
  outer loop
    vertex -43.0535291666666 28.6050566666668 0.87566499999998
    vertex -41.8859758333333 28.6050566666668 2.33510666666665
    vertex -43.0535291666666 28.6050566666668 2.33510666666665
  endloop
endfacet
facet normal 1.0 -2.38697950294408e-015 -3.55271367880049e-016
  outer loop
    vertex -43.0535291666666 28.6050566666668 0.87566499999998
    vertex -43.0535291666667 0.583776666666671 2.33510666666668
    vertex -43.0535291666667 0.583776666666669 0.875665000000013
  endloop
endfacet
facet normal 1.0 -2.38697950294408e-015 -3.55271367880049e-016
  outer loop
    vertex -43.0535291666667 0.583776666666671 2.33510666666668
    vertex -43.0535291666666 28.6050566666668 0.87566499999998
    vertex -43.0535291666666 28.6050566666668 2.33510666666665
  endloop
endfacet
endsolid Untitled-68780a00
