solid Untitled-687808e9
facet normal 1.0 0.0 0.0
  outer loop
    vertex 41.661017460406 12.3702113056462 1.55098156540134e-014
    vertex 41.661017460406 -11.2727436943538 1.75133000000002
    vertex 41.661017460406 -11.2727436943538 1.55098156540134e-014
  endloop
endfacet
facet normal 1.0 0.0 0.0
  outer loop
    vertex 41.661017460406 -11.2727436943538 1.75133000000002
    vertex 41.661017460406 12.3702113056462 1.55098156540134e-014
    vertex 41.661017460406 12.3702113056462 1.75133000000002
  endloop
endfacet
facet normal 0.0 -1.0 1.10528870007127e-014
  outer loop
    vertex -38.024497539594 -11.2727436943538 1.75133000000002
    vertex -42.1109342062606 -11.2727436943538 1.55098156540134e-014
    vertex -38.024497539594 -11.2727436943538 1.55098156540134e-014
  endloop
endfacet
facet normal 0.0 -1.0 1.10528870007127e-014
  outer loop
    vertex -42.1109342062606 -11.2727436943538 1.55098156540134e-014
    vertex -38.024497539594 -11.2727436943538 1.75133000000002
    vertex -42.1109342062606 -11.2727436943538 1.75133000000002
  endloop
endfacet
facet normal 0.0 1.0 4.01436573875763e-016
  outer loop
    vertex -42.1109342062606 12.3702113056462 1.75133000000002
    vertex -40.0677158729273 12.3702113056462 1.69197988952874e-014
    vertex -42.1109342062606 12.3702113056462 1.55098156540134e-014
  endloop
endfacet
facet normal 0.0 1.0 4.01436573875763e-016
  outer loop
    vertex -40.0677158729273 12.3702113056462 1.69197988952874e-014
    vertex -42.1109342062606 12.3702113056462 1.75133000000002
    vertex 39.6177991270727 12.3702113056462 1.69197988952874e-014
  endloop
endfacet
facet normal 0.0 1.0 4.01436573875763e-016
  outer loop
    vertex 39.6177991270727 12.3702113056462 1.69197988952874e-014
    vertex 41.661017460406 12.3702113056462 1.75133000000002
    vertex 41.661017460406 12.3702113056462 1.55098156540134e-014
  endloop
endfacet
facet normal 0.0 1.0 4.01436573875763e-016
  outer loop
    vertex 41.661017460406 12.3702113056462 1.75133000000002
    vertex 39.6177991270727 12.3702113056462 1.69197988952874e-014
    vertex -42.1109342062606 12.3702113056462 1.75133000000002
  endloop
endfacet
facet normal 0.0 0.0 1.0
  outer loop
    vertex -15.4031517062606 -16.5267336943538 1.75133000000002
    vertex -38.024497539594 -11.2727436943538 1.75133000000002
    vertex -38.024497539594 -16.5267336943538 1.75133000000002
  endloop
endfacet
facet normal 0.0 0.0 1.0
  outer loop
    vertex 37.5745807937394 -16.5267336943538 1.75133000000002
    vertex 14.953234960406 -11.2727436943538 1.75133000000002
    vertex 14.953234960406 -16.5267336943538 1.75133000000002
  endloop
endfacet
facet normal 0.0 0.0 1.0
  outer loop
    vertex -38.024497539594 -11.2727436943538 1.75133000000002
    vertex -42.1109342062606 12.3702113056462 1.75133000000002
    vertex -42.1109342062606 -11.2727436943538 1.75133000000002
  endloop
endfacet
facet normal 0.0 0.0 1.0
  outer loop
    vertex -42.1109342062606 12.3702113056462 1.75133000000002
    vertex -38.024497539594 -11.2727436943538 1.75133000000002
    vertex 41.661017460406 12.3702113056462 1.75133000000002
  endloop
endfacet
facet normal 0.0 0.0 1.0
  outer loop
    vertex 41.661017460406 12.3702113056462 1.75133000000002
    vertex -38.024497539594 -11.2727436943538 1.75133000000002
    vertex -15.4031517062606 -11.2727436943538 1.75133000000002
  endloop
endfacet
facet normal 0.0 0.0 1.0
  outer loop
    vertex -15.4031517062606 -11.2727436943538 1.75133000000002
    vertex -38.024497539594 -11.2727436943538 1.75133000000002
    vertex -15.4031517062606 -16.5267336943538 1.75133000000002
  endloop
endfacet
facet normal 0.0 0.0 1.0
  outer loop
    vertex 41.661017460406 12.3702113056462 1.75133000000002
    vertex -15.4031517062606 -11.2727436943538 1.75133000000002
    vertex 14.953234960406 -11.2727436943538 1.75133000000002
  endloop
endfacet
facet normal 0.0 0.0 1.0
  outer loop
    vertex 41.661017460406 12.3702113056462 1.75133000000002
    vertex 14.953234960406 -11.2727436943538 1.75133000000002
    vertex 37.5745807937394 -11.2727436943538 1.75133000000002
  endloop
endfacet
facet normal 0.0 0.0 1.0
  outer loop
    vertex 37.5745807937394 -11.2727436943538 1.75133000000002
    vertex 14.953234960406 -11.2727436943538 1.75133000000002
    vertex 37.5745807937394 -16.5267336943538 1.75133000000002
  endloop
endfacet
facet normal 0.0 0.0 1.0
  outer loop
    vertex 41.661017460406 12.3702113056462 1.75133000000002
    vertex 37.5745807937394 -11.2727436943538 1.75133000000002
    vertex 41.661017460406 -11.2727436943538 1.75133000000002
  endloop
endfacet
facet normal 0.0 -1.0 0.0
  outer loop
    vertex 14.953234960406 -11.2727436943538 1.75133000000002
    vertex -15.4031517062606 -11.2727436943538 1.55098156540134e-014
    vertex 14.953234960406 -11.2727436943538 1.55098156540134e-014
  endloop
endfacet
facet normal 0.0 -1.0 0.0
  outer loop
    vertex -15.4031517062606 -11.2727436943538 1.55098156540134e-014
    vertex 14.953234960406 -11.2727436943538 1.75133000000002
    vertex -15.4031517062606 -11.2727436943538 1.75133000000002
  endloop
endfacet
facet normal 1.0 0.0 0.0
  outer loop
    vertex 37.5745807937394 -11.2727436943538 1.55098156540134e-014
    vertex 37.5745807937394 -16.5267336943538 1.75133000000002
    vertex 37.5745807937394 -16.5267336943538 1.55098156540134e-014
  endloop
endfacet
facet normal 1.0 0.0 0.0
  outer loop
    vertex 37.5745807937394 -16.5267336943538 1.75133000000002
    vertex 37.5745807937394 -11.2727436943538 1.55098156540134e-014
    vertex 37.5745807937394 -11.2727436943538 1.75133000000002
  endloop
endfacet
facet normal -1.0 0.0 0.0
  outer loop
    vertex -38.024497539594 -11.2727436943538 1.75133000000002
    vertex -38.024497539594 -16.5267336943538 1.55098156540134e-014
    vertex -38.024497539594 -16.5267336943538 1.75133000000002
  endloop
endfacet
facet normal -1.0 0.0 0.0
  outer loop
    vertex -38.024497539594 -16.5267336943538 1.55098156540134e-014
    vertex -38.024497539594 -11.2727436943538 1.75133000000002
    vertex -38.024497539594 -11.2727436943538 1.55098156540134e-014
  endloop
endfacet
facet normal 6.87622002348484e-017 -1.0 2.96059473233375e-016
  outer loop
    vertex 37.5745807937394 -16.5267336943538 1.75133000000002
    vertex 14.953234960406 -16.5267336943538 1.55098156540134e-014
    vertex 37.5745807937394 -16.5267336943538 1.55098156540134e-014
  endloop
endfacet
facet normal 6.87622002348484e-017 -1.0 2.96059473233375e-016
  outer loop
    vertex 14.953234960406 -16.5267336943538 1.55098156540134e-014
    vertex 37.5745807937394 -16.5267336943538 1.75133000000002
    vertex 14.953234960406 -16.5267336943538 1.75133000000002
  endloop
endfacet
facet normal -1.0 0.0 0.0
  outer loop
    vertex 14.953234960406 -11.2727436943538 1.75133000000002
    vertex 14.953234960406 -16.5267336943538 1.55098156540134e-014
    vertex 14.953234960406 -16.5267336943538 1.75133000000002
  endloop
endfacet
facet normal -1.0 0.0 0.0
  outer loop
    vertex 14.953234960406 -16.5267336943538 1.55098156540134e-014
    vertex 14.953234960406 -11.2727436943538 1.75133000000002
    vertex 14.953234960406 -11.2727436943538 1.55098156540134e-014
  endloop
endfacet
facet normal -2.87775718218922e-018 3.5055488961681e-017 -1.0
  outer loop
    vertex -40.0677158729273 12.3702113056462 1.69197988952874e-014
    vertex -42.1109342062606 -11.2727436943538 1.55098156540134e-014
    vertex -42.1109342062606 12.3702113056462 1.55098156540134e-014
  endloop
endfacet
facet normal -2.87775718218922e-018 3.5055488961681e-017 -1.0
  outer loop
    vertex -42.1109342062606 -11.2727436943538 1.55098156540134e-014
    vertex -40.0677158729273 12.3702113056462 1.69197988952874e-014
    vertex -38.024497539594 -11.2727436943538 1.55098156540134e-014
  endloop
endfacet
facet normal -2.87775718218922e-018 3.5055488961681e-017 -1.0
  outer loop
    vertex -38.024497539594 -11.2727436943538 1.55098156540134e-014
    vertex -40.0677158729273 12.3702113056462 1.69197988952874e-014
    vertex 39.6177991270727 12.3702113056462 1.69197988952874e-014
  endloop
endfacet
facet normal -2.87775718218922e-018 3.5055488961681e-017 -1.0
  outer loop
    vertex -38.024497539594 -11.2727436943538 1.55098156540134e-014
    vertex 39.6177991270727 12.3702113056462 1.69197988952874e-014
    vertex -38.024497539594 -16.5267336943538 1.55098156540134e-014
  endloop
endfacet
facet normal -2.87775718218922e-018 3.5055488961681e-017 -1.0
  outer loop
    vertex -38.024497539594 -16.5267336943538 1.55098156540134e-014
    vertex 39.6177991270727 12.3702113056462 1.69197988952874e-014
    vertex -15.4031517062606 -11.2727436943538 1.55098156540134e-014
  endloop
endfacet
facet normal -2.87775718218922e-018 3.5055488961681e-017 -1.0
  outer loop
    vertex -15.4031517062606 -11.2727436943538 1.55098156540134e-014
    vertex 39.6177991270727 12.3702113056462 1.69197988952874e-014
    vertex 14.953234960406 -11.2727436943538 1.55098156540134e-014
  endloop
endfacet
facet normal -2.87775718218922e-018 3.5055488961681e-017 -1.0
  outer loop
    vertex 14.953234960406 -11.2727436943538 1.55098156540134e-014
    vertex 39.6177991270727 12.3702113056462 1.69197988952874e-014
    vertex 14.953234960406 -16.5267336943538 1.55098156540134e-014
  endloop
endfacet
facet normal -2.87775718218922e-018 3.5055488961681e-017 -1.0
  outer loop
    vertex 14.953234960406 -16.5267336943538 1.55098156540134e-014
    vertex 39.6177991270727 12.3702113056462 1.69197988952874e-014
    vertex 37.5745807937394 -11.2727436943538 1.55098156540134e-014
  endloop
endfacet
facet normal -2.87775718218922e-018 3.5055488961681e-017 -1.0
  outer loop
    vertex 37.5745807937394 -11.2727436943538 1.55098156540134e-014
    vertex 39.6177991270727 12.3702113056462 1.69197988952874e-014
    vertex 41.661017460406 -11.2727436943538 1.55098156540134e-014
  endloop
endfacet
facet normal -2.87775718218922e-018 3.5055488961681e-017 -1.0
  outer loop
    vertex 41.661017460406 -11.2727436943538 1.55098156540134e-014
    vertex 39.6177991270727 12.3702113056462 1.69197988952874e-014
    vertex 41.661017460406 12.3702113056462 1.55098156540134e-014
  endloop
endfacet
facet normal -2.87775718218922e-018 3.5055488961681e-017 -1.0
  outer loop
    vertex 37.5745807937394 -16.5267336943538 1.55098156540134e-014
    vertex 14.953234960406 -16.5267336943538 1.55098156540134e-014
    vertex 37.5745807937394 -11.2727436943538 1.55098156540134e-014
  endloop
endfacet
facet normal -2.87775718218922e-018 3.5055488961681e-017 -1.0
  outer loop
    vertex -15.4031517062606 -16.5267336943538 1.55098156540134e-014
    vertex -38.024497539594 -16.5267336943538 1.55098156540134e-014
    vertex -15.4031517062606 -11.2727436943538 1.55098156540134e-014
  endloop
endfacet
facet normal 0.0 -1.0 0.0
  outer loop
    vertex -15.4031517062606 -16.5267336943538 1.75133000000002
    vertex -38.024497539594 -16.5267336943538 1.55098156540134e-014
    vertex -15.4031517062606 -16.5267336943538 1.55098156540134e-014
  endloop
endfacet
facet normal 0.0 -1.0 0.0
  outer loop
    vertex -38.024497539594 -16.5267336943538 1.55098156540134e-014
    vertex -15.4031517062606 -16.5267336943538 1.75133000000002
    vertex -38.024497539594 -16.5267336943538 1.75133000000002
  endloop
endfacet
facet normal -1.0 0.0 0.0
  outer loop
    vertex -42.1109342062606 12.3702113056462 1.75133000000002
    vertex -42.1109342062606 -11.2727436943538 1.55098156540134e-014
    vertex -42.1109342062606 -11.2727436943538 1.75133000000002
  endloop
endfacet
facet normal -1.0 0.0 0.0
  outer loop
    vertex -42.1109342062606 -11.2727436943538 1.55098156540134e-014
    vertex -42.1109342062606 12.3702113056462 1.75133000000002
    vertex -42.1109342062606 12.3702113056462 1.55098156540134e-014
  endloop
endfacet
facet normal -5.07530525542929e-016 -1.0 -3.94745964311167e-016
  outer loop
    vertex 41.661017460406 -11.2727436943538 1.75133000000002
    vertex 37.5745807937394 -11.2727436943538 1.55098156540134e-014
    vertex 41.661017460406 -11.2727436943538 1.55098156540134e-014
  endloop
endfacet
facet normal -5.07530525542929e-016 -1.0 -3.94745964311167e-016
  outer loop
    vertex 37.5745807937394 -11.2727436943538 1.55098156540134e-014
    vertex 41.661017460406 -11.2727436943538 1.75133000000002
    vertex 37.5745807937394 -11.2727436943538 1.75133000000002
  endloop
endfacet
facet normal 1.0 0.0 0.0
  outer loop
    vertex -15.4031517062606 -11.2727436943538 1.55098156540134e-014
    vertex -15.4031517062606 -16.5267336943538 1.75133000000002
    vertex -15.4031517062606 -16.5267336943538 1.55098156540134e-014
  endloop
endfacet
facet normal 1.0 0.0 0.0
  outer loop
    vertex -15.4031517062606 -16.5267336943538 1.75133000000002
    vertex -15.4031517062606 -11.2727436943538 1.55098156540134e-014
    vertex -15.4031517062606 -11.2727436943538 1.75133000000002
  endloop
endfacet
endsolid Untitled-687808e9
