solid Untitled-68780f86
facet normal 2.12430243563112e-031 -3.79292654545315e-016 -1.0
  outer loop
    vertex -1.75133000000001 5.50678542016489 -1.29062399653064e-015
    vertex 1.75133 2.8199664825479e-015 1.21369740470733e-015
    vertex -1.75133 1.06312736392056e-016 1.21369740470733e-015
  endloop
endfacet
facet normal 2.12430243563112e-031 -3.79292654545315e-016 -1.0
  outer loop
    vertex 1.75133 2.8199664825479e-015 1.21369740470733e-015
    vertex -1.75133000000001 5.50678542016489 -1.29062399653064e-015
    vertex 1.75132999999999 5.5067854201649 -1.29062399653064e-015
  endloop
endfacet
facet normal 1.0 7.74740838721384e-016 -5.58255072177739e-031
  outer loop
    vertex 1.75132999999999 5.5067854201649 2.1654141259199
    vertex 1.75133 2.8199664825479e-015 1.21369740470733e-015
    vertex 1.75132999999999 5.5067854201649 -1.29062399653064e-015
  endloop
endfacet
facet normal 1.0 7.74740838721384e-016 -5.58255072177739e-031
  outer loop
    vertex 1.75133 2.8199664825479e-015 1.21369740470733e-015
    vertex 1.75132999999999 5.5067854201649 2.1654141259199
    vertex 1.75133 3.64129215455798e-015 2.1654141259199
  endloop
endfacet
facet normal 7.74740838721385e-016 -1.0 4.54770108177373e-016
  outer loop
    vertex -1.75133 9.27638408402143e-016 2.16541412591992
    vertex 1.75133 2.8199664825479e-015 1.21369740470733e-015
    vertex 1.75133 3.64129215455798e-015 2.1654141259199
  endloop
endfacet
facet normal 7.74740838721385e-016 -1.0 4.54770108177373e-016
  outer loop
    vertex 1.75133 2.8199664825479e-015 1.21369740470733e-015
    vertex -1.75133 9.27638408402143e-016 2.16541412591992
    vertex -1.75133 1.06312736392056e-016 1.21369740470733e-015
  endloop
endfacet
facet normal -7.00725970413041e-016 1.0 -4.54770108177373e-016
  outer loop
    vertex -1.75133000000001 5.50678542016489 -1.29062399653064e-015
    vertex 1.75132999999999 5.5067854201649 2.1654141259199
    vertex 1.75132999999999 5.5067854201649 -1.29062399653064e-015
  endloop
endfacet
facet normal -7.00725970413041e-016 1.0 -4.54770108177373e-016
  outer loop
    vertex 1.75132999999999 5.5067854201649 2.1654141259199
    vertex -1.75133000000001 5.50678542016489 -1.29062399653064e-015
    vertex -1.75133000000001 5.50678542016489 2.16541412591991
  endloop
endfacet
facet normal -2.12430243563112e-031 3.79292654545315e-016 1.0
  outer loop
    vertex 1.75133 3.64129215455798e-015 2.1654141259199
    vertex 0.722386769472338 2.09376894791252 2.1654141259199
    vertex -1.75133 9.27638408402143e-016 2.16541412591992
  endloop
endfacet
facet normal -2.12430243563112e-031 3.79292654545315e-016 1.0
  outer loop
    vertex 0.722386769472338 2.09376894791252 2.1654141259199
    vertex 1.75133 3.64129215455798e-015 2.1654141259199
    vertex 0.884739491072376 2.30535113405152 2.1654141259199
  endloop
endfacet
facet normal -2.12430243563112e-031 3.79292654545315e-016 1.0
  outer loop
    vertex 0.884739491072376 2.30535113405152 2.1654141259199
    vertex 1.75133 3.64129215455798e-015 2.1654141259199
    vertex 0.986798678456975 2.55174380840021 2.1654141259199
  endloop
endfacet
facet normal -2.12430243563112e-031 3.79292654545315e-016 1.0
  outer loop
    vertex 0.986798678456975 2.55174380840021 2.1654141259199
    vertex 1.75133 3.64129215455798e-015 2.1654141259199
    vertex 1.75132999999999 5.5067854201649 2.1654141259199
  endloop
endfacet
facet normal -2.12430243563112e-031 3.79292654545315e-016 1.0
  outer loop
    vertex -1.75133 9.27638408402143e-016 2.16541412591992
    vertex 0.722386769472338 2.09376894791252 2.1654141259199
    vertex 0.510804583333329 1.93141622631247 2.1654141259199
  endloop
endfacet
facet normal -2.12430243563112e-031 3.79292654545315e-016 1.0
  outer loop
    vertex -1.75133 9.27638408402143e-016 2.16541412591992
    vertex 0.510804583333329 1.93141622631247 2.1654141259199
    vertex 0.264411908984648 1.82935703892787 2.1654141259199
  endloop
endfacet
facet normal -2.12430243563112e-031 3.79292654545315e-016 1.0
  outer loop
    vertex -1.75133 9.27638408402143e-016 2.16541412591992
    vertex 0.264411908984648 1.82935703892787 2.1654141259199
    vertex -4.93494134445882e-015 1.79454655071819 2.1654141259199
  endloop
endfacet
facet normal -2.12430243563112e-031 3.79292654545315e-016 1.0
  outer loop
    vertex 0.986798678456975 2.55174380840021 2.1654141259199
    vertex 1.75132999999999 5.5067854201649 2.1654141259199
    vertex 1.02160916666666 2.81615571738485 2.1654141259199
  endloop
endfacet
facet normal -2.12430243563112e-031 3.79292654545315e-016 1.0
  outer loop
    vertex 1.02160916666666 2.81615571738485 2.1654141259199
    vertex 1.75132999999999 5.5067854201649 2.1654141259199
    vertex 0.986798678456974 3.0805676263695 2.1654141259199
  endloop
endfacet
facet normal -2.12430243563112e-031 3.79292654545315e-016 1.0
  outer loop
    vertex 0.986798678456974 3.0805676263695 2.1654141259199
    vertex 1.75132999999999 5.5067854201649 2.1654141259199
    vertex 0.884739491072375 3.32696030071819 2.1654141259199
  endloop
endfacet
facet normal -2.12430243563112e-031 3.79292654545315e-016 1.0
  outer loop
    vertex 0.884739491072375 3.32696030071819 2.1654141259199
    vertex 1.75132999999999 5.5067854201649 2.1654141259199
    vertex 0.722386769472338 3.53854248685719 2.1654141259199
  endloop
endfacet
facet normal -2.12430243563112e-031 3.79292654545315e-016 1.0
  outer loop
    vertex 0.722386769472338 3.53854248685719 2.1654141259199
    vertex 1.75132999999999 5.5067854201649 2.1654141259199
    vertex 0.510804583333327 3.70089520845724 2.1654141259199
  endloop
endfacet
facet normal -2.12430243563112e-031 3.79292654545315e-016 1.0
  outer loop
    vertex 0.510804583333327 3.70089520845724 2.1654141259199
    vertex 1.75132999999999 5.5067854201649 2.1654141259199
    vertex 0.264411908984647 3.80295439584184 2.1654141259199
  endloop
endfacet
facet normal -2.12430243563112e-031 3.79292654545315e-016 1.0
  outer loop
    vertex 0.264411908984647 3.80295439584184 2.1654141259199
    vertex 1.75132999999999 5.5067854201649 2.1654141259199
    vertex -6.34492458573277e-015 3.83776488405152 2.1654141259199
  endloop
endfacet
facet normal -2.12430243563112e-031 3.79292654545315e-016 1.0
  outer loop
    vertex -1.75133 9.27638408402143e-016 2.16541412591992
    vertex -0.986798678456986 2.5517438084002 2.1654141259199
    vertex -1.75133000000001 5.50678542016489 2.16541412591991
  endloop
endfacet
facet normal -2.12430243563112e-031 3.79292654545315e-016 1.0
  outer loop
    vertex -0.986798678456986 2.5517438084002 2.1654141259199
    vertex -1.75133 9.27638408402143e-016 2.16541412591992
    vertex -0.884739491072386 2.30535113405152 2.1654141259199
  endloop
endfacet
facet normal -2.12430243563112e-031 3.79292654545315e-016 1.0
  outer loop
    vertex -0.884739491072386 2.30535113405152 2.1654141259199
    vertex -1.75133 9.27638408402143e-016 2.16541412591992
    vertex -0.722386769472349 2.09376894791252 2.1654141259199
  endloop
endfacet
facet normal -2.12430243563112e-031 3.79292654545315e-016 1.0
  outer loop
    vertex -0.722386769472349 2.09376894791252 2.1654141259199
    vertex -1.75133 9.27638408402143e-016 2.16541412591992
    vertex -0.510804583333338 1.93141622631247 2.1654141259199
  endloop
endfacet
facet normal -2.12430243563112e-031 3.79292654545315e-016 1.0
  outer loop
    vertex -0.510804583333338 1.93141622631247 2.1654141259199
    vertex -1.75133 9.27638408402143e-016 2.16541412591992
    vertex -0.264411908984658 1.82935703892787 2.1654141259199
  endloop
endfacet
facet normal -2.12430243563112e-031 3.79292654545315e-016 1.0
  outer loop
    vertex -0.264411908984658 1.82935703892787 2.1654141259199
    vertex -1.75133 9.27638408402143e-016 2.16541412591992
    vertex -4.93494134445882e-015 1.79454655071819 2.1654141259199
  endloop
endfacet
facet normal -2.12430243563112e-031 3.79292654545315e-016 1.0
  outer loop
    vertex -1.75133000000001 5.50678542016489 2.16541412591991
    vertex -0.986798678456986 2.5517438084002 2.1654141259199
    vertex -1.02160916666667 2.81615571738485 2.1654141259199
  endloop
endfacet
facet normal -2.12430243563112e-031 3.79292654545315e-016 1.0
  outer loop
    vertex -1.75133000000001 5.50678542016489 2.16541412591991
    vertex -1.02160916666667 2.81615571738485 2.1654141259199
    vertex -0.986798678456986 3.0805676263695 2.1654141259199
  endloop
endfacet
facet normal -2.12430243563112e-031 3.79292654545315e-016 1.0
  outer loop
    vertex -1.75133000000001 5.50678542016489 2.16541412591991
    vertex -0.986798678456986 3.0805676263695 2.1654141259199
    vertex -0.884739491072387 3.32696030071819 2.1654141259199
  endloop
endfacet
facet normal -2.12430243563112e-031 3.79292654545315e-016 1.0
  outer loop
    vertex -1.75133000000001 5.50678542016489 2.16541412591991
    vertex -0.884739491072387 3.32696030071819 2.1654141259199
    vertex -0.72238676947235 3.53854248685719 2.1654141259199
  endloop
endfacet
facet normal -2.12430243563112e-031 3.79292654545315e-016 1.0
  outer loop
    vertex -1.75133000000001 5.50678542016489 2.16541412591991
    vertex -0.72238676947235 3.53854248685719 2.1654141259199
    vertex -0.510804583333339 3.70089520845724 2.1654141259199
  endloop
endfacet
facet normal -2.12430243563112e-031 3.79292654545315e-016 1.0
  outer loop
    vertex -1.75133000000001 5.50678542016489 2.16541412591991
    vertex -0.510804583333339 3.70089520845724 2.1654141259199
    vertex -0.264411908984659 3.80295439584184 2.1654141259199
  endloop
endfacet
facet normal -2.12430243563112e-031 3.79292654545315e-016 1.0
  outer loop
    vertex -1.75133000000001 5.50678542016489 2.16541412591991
    vertex -0.264411908984659 3.80295439584184 2.1654141259199
    vertex -6.34492458573277e-015 3.83776488405152 2.1654141259199
  endloop
endfacet
facet normal -2.12430243563112e-031 3.79292654545315e-016 1.0
  outer loop
    vertex -1.75133000000001 5.50678542016489 2.16541412591991
    vertex -6.34492458573277e-015 3.83776488405152 2.1654141259199
    vertex 1.75132999999999 5.5067854201649 2.1654141259199
  endloop
endfacet
facet normal -1.0 -7.74740838721384e-016 5.58255072177739e-031
  outer loop
    vertex -1.75133 9.27638408402143e-016 2.16541412591992
    vertex -1.75133000000001 5.50678542016489 -1.29062399653064e-015
    vertex -1.75133 1.06312736392056e-016 1.21369740470733e-015
  endloop
endfacet
facet normal -1.0 -7.74740838721384e-016 5.58255072177739e-031
  outer loop
    vertex -1.75133000000001 5.50678542016489 -1.29062399653064e-015
    vertex -1.75133 9.27638408402143e-016 2.16541412591992
    vertex -1.75133000000001 5.50678542016489 2.16541412591991
  endloop
endfacet
facet normal 0.382683432365091 0.923879532511286 -4.20152794943019e-016
  outer loop
    vertex 0.264411908984647 3.80295439584184 2.1654141259199
    vertex 0.510804583333327 3.70089520845724 3.0410791259199
    vertex 0.510804583333327 3.70089520845724 2.1654141259199
  endloop
endfacet
facet normal 0.382683432365091 0.923879532511286 -4.20152794943019e-016
  outer loop
    vertex 0.510804583333327 3.70089520845724 3.0410791259199
    vertex 0.264411908984647 3.80295439584184 2.1654141259199
    vertex 0.264411908984647 3.80295439584184 3.0410791259199
  endloop
endfacet
facet normal 0.60876142900872 0.793353340291236 -3.60793384387126e-016
  outer loop
    vertex 0.510804583333327 3.70089520845724 2.1654141259199
    vertex 0.722386769472338 3.53854248685719 3.0410791259199
    vertex 0.722386769472338 3.53854248685719 2.1654141259199
  endloop
endfacet
facet normal 0.60876142900872 0.793353340291236 -3.60793384387126e-016
  outer loop
    vertex 0.722386769472338 3.53854248685719 3.0410791259199
    vertex 0.510804583333327 3.70089520845724 2.1654141259199
    vertex 0.510804583333327 3.70089520845724 3.0410791259199
  endloop
endfacet
facet normal 0.793353340291235 0.608761429008721 -2.76846500924509e-016
  outer loop
    vertex 0.722386769472338 3.53854248685719 3.0410791259199
    vertex 0.884739491072375 3.32696030071819 2.1654141259199
    vertex 0.722386769472338 3.53854248685719 2.1654141259199
  endloop
endfacet
facet normal 0.793353340291235 0.608761429008721 -2.76846500924509e-016
  outer loop
    vertex 0.884739491072375 3.32696030071819 2.1654141259199
    vertex 0.722386769472338 3.53854248685719 3.0410791259199
    vertex 0.884739491072375 3.32696030071819 3.0410791259199
  endloop
endfacet
facet normal 0.923879532511286 0.382683432365092 -1.74032985934361e-016
  outer loop
    vertex 0.884739491072375 3.32696030071819 3.0410791259199
    vertex 0.986798678456974 3.0805676263695 2.1654141259199
    vertex 0.884739491072375 3.32696030071819 2.1654141259199
  endloop
endfacet
facet normal 0.923879532511286 0.382683432365092 -1.74032985934361e-016
  outer loop
    vertex 0.986798678456974 3.0805676263695 2.1654141259199
    vertex 0.884739491072375 3.32696030071819 3.0410791259199
    vertex 0.986798678456974 3.0805676263695 3.0410791259199
  endloop
endfacet
facet normal 0.99144486137381 0.130526192220053 -5.93594105558944e-017
  outer loop
    vertex 0.986798678456974 3.0805676263695 3.0410791259199
    vertex 1.02160916666666 2.81615571738485 2.1654141259199
    vertex 0.986798678456974 3.0805676263695 2.1654141259199
  endloop
endfacet
facet normal 0.99144486137381 0.130526192220053 -5.93594105558944e-017
  outer loop
    vertex 1.02160916666666 2.81615571738485 2.1654141259199
    vertex 0.986798678456974 3.0805676263695 3.0410791259199
    vertex 1.02160916666666 2.81615571738485 3.0410791259199
  endloop
endfacet
facet normal 0.99144486137381 -0.130526192220052 5.93594105558935e-017
  outer loop
    vertex 1.02160916666666 2.81615571738485 3.0410791259199
    vertex 0.986798678456975 2.55174380840021 2.1654141259199
    vertex 1.02160916666666 2.81615571738485 2.1654141259199
  endloop
endfacet
facet normal 0.99144486137381 -0.130526192220052 5.93594105558935e-017
  outer loop
    vertex 0.986798678456975 2.55174380840021 2.1654141259199
    vertex 1.02160916666666 2.81615571738485 3.0410791259199
    vertex 0.986798678456975 2.55174380840021 3.0410791259199
  endloop
endfacet
facet normal 0.130526192220052 0.99144486137381 -4.50879486858869e-016
  outer loop
    vertex -6.34492458573277e-015 3.83776488405152 2.1654141259199
    vertex 0.264411908984647 3.80295439584184 3.0410791259199
    vertex 0.264411908984647 3.80295439584184 2.1654141259199
  endloop
endfacet
facet normal 0.130526192220052 0.99144486137381 -4.50879486858869e-016
  outer loop
    vertex 0.264411908984647 3.80295439584184 3.0410791259199
    vertex -6.34492458573277e-015 3.83776488405152 2.1654141259199
    vertex -6.34492458573277e-015 3.83776488405152 3.0410791259199
  endloop
endfacet
facet normal 0.923879532511288 -0.382683432365087 1.74032985934359e-016
  outer loop
    vertex 0.986798678456975 2.55174380840021 3.0410791259199
    vertex 0.884739491072376 2.30535113405152 2.1654141259199
    vertex 0.986798678456975 2.55174380840021 2.1654141259199
  endloop
endfacet
facet normal 0.923879532511288 -0.382683432365087 1.74032985934359e-016
  outer loop
    vertex 0.884739491072376 2.30535113405152 2.1654141259199
    vertex 0.986798678456975 2.55174380840021 3.0410791259199
    vertex 0.884739491072376 2.30535113405152 3.0410791259199
  endloop
endfacet
facet normal 0.793353340291234 -0.608761429008722 2.76846500924509e-016
  outer loop
    vertex 0.884739491072376 2.30535113405152 2.1654141259199
    vertex 0.722386769472338 2.09376894791252 3.0410791259199
    vertex 0.722386769472338 2.09376894791252 2.1654141259199
  endloop
endfacet
facet normal 0.793353340291234 -0.608761429008722 2.76846500924509e-016
  outer loop
    vertex 0.722386769472338 2.09376894791252 3.0410791259199
    vertex 0.884739491072376 2.30535113405152 2.1654141259199
    vertex 0.884739491072376 2.30535113405152 3.0410791259199
  endloop
endfacet
facet normal 0.608761429008721 -0.793353340291235 3.60793384387125e-016
  outer loop
    vertex 0.510804583333329 1.93141622631247 3.0410791259199
    vertex 0.722386769472338 2.09376894791252 2.1654141259199
    vertex 0.722386769472338 2.09376894791252 3.0410791259199
  endloop
endfacet
facet normal 0.608761429008721 -0.793353340291235 3.60793384387125e-016
  outer loop
    vertex 0.722386769472338 2.09376894791252 2.1654141259199
    vertex 0.510804583333329 1.93141622631247 3.0410791259199
    vertex 0.510804583333329 1.93141622631247 2.1654141259199
  endloop
endfacet
facet normal 0.382683432365093 -0.923879532511285 4.20152794943018e-016
  outer loop
    vertex 0.264411908984648 1.82935703892787 3.0410791259199
    vertex 0.510804583333329 1.93141622631247 2.1654141259199
    vertex 0.510804583333329 1.93141622631247 3.0410791259199
  endloop
endfacet
facet normal 0.382683432365093 -0.923879532511285 4.20152794943018e-016
  outer loop
    vertex 0.510804583333329 1.93141622631247 2.1654141259199
    vertex 0.264411908984648 1.82935703892787 3.0410791259199
    vertex 0.264411908984648 1.82935703892787 2.1654141259199
  endloop
endfacet
facet normal 0.130526192220053 -0.99144486137381 4.50879486858868e-016
  outer loop
    vertex -4.93494134445882e-015 1.79454655071819 3.0410791259199
    vertex 0.264411908984648 1.82935703892787 2.1654141259199
    vertex 0.264411908984648 1.82935703892787 3.0410791259199
  endloop
endfacet
facet normal 0.130526192220053 -0.99144486137381 4.50879486858868e-016
  outer loop
    vertex 0.264411908984648 1.82935703892787 2.1654141259199
    vertex -4.93494134445882e-015 1.79454655071819 3.0410791259199
    vertex -4.93494134445882e-015 1.79454655071819 2.1654141259199
  endloop
endfacet
facet normal -2.12430243563112e-031 3.79292654545315e-016 1.0
  outer loop
    vertex 0.264411908984648 1.82935703892787 3.0410791259199
    vertex -0.264411908984658 1.82935703892787 3.0410791259199
    vertex -4.93494134445882e-015 1.79454655071819 3.0410791259199
  endloop
endfacet
facet normal -2.12430243563112e-031 3.79292654545315e-016 1.0
  outer loop
    vertex -0.264411908984658 1.82935703892787 3.0410791259199
    vertex 0.264411908984648 1.82935703892787 3.0410791259199
    vertex 0.510804583333329 1.93141622631247 3.0410791259199
  endloop
endfacet
facet normal -2.12430243563112e-031 3.79292654545315e-016 1.0
  outer loop
    vertex -0.264411908984658 1.82935703892787 3.0410791259199
    vertex 0.510804583333329 1.93141622631247 3.0410791259199
    vertex -0.510804583333338 1.93141622631247 3.0410791259199
  endloop
endfacet
facet normal -2.12430243563112e-031 3.79292654545315e-016 1.0
  outer loop
    vertex -0.510804583333338 1.93141622631247 3.0410791259199
    vertex 0.510804583333329 1.93141622631247 3.0410791259199
    vertex -0.722386769472332 2.09376894791252 3.0410791259199
  endloop
endfacet
facet normal -2.12430243563112e-031 3.79292654545315e-016 1.0
  outer loop
    vertex -0.722386769472332 2.09376894791252 3.0410791259199
    vertex 0.510804583333329 1.93141622631247 3.0410791259199
    vertex 0.722386769472338 2.09376894791252 3.0410791259199
  endloop
endfacet
facet normal -2.12430243563112e-031 3.79292654545315e-016 1.0
  outer loop
    vertex -0.722386769472332 2.09376894791252 3.0410791259199
    vertex 0.722386769472338 2.09376894791252 3.0410791259199
    vertex 0.884739491072376 2.30535113405152 3.0410791259199
  endloop
endfacet
facet normal -2.12430243563112e-031 3.79292654545315e-016 1.0
  outer loop
    vertex -0.722386769472332 2.09376894791252 3.0410791259199
    vertex 0.884739491072376 2.30535113405152 3.0410791259199
    vertex -0.884739491072386 2.30535113405152 3.0410791259199
  endloop
endfacet
facet normal -2.12430243563112e-031 3.79292654545315e-016 1.0
  outer loop
    vertex -0.884739491072386 2.30535113405152 3.0410791259199
    vertex 0.884739491072376 2.30535113405152 3.0410791259199
    vertex 0.986798678456975 2.55174380840021 3.0410791259199
  endloop
endfacet
facet normal -2.12430243563112e-031 3.79292654545315e-016 1.0
  outer loop
    vertex -0.884739491072386 2.30535113405152 3.0410791259199
    vertex 0.986798678456975 2.55174380840021 3.0410791259199
    vertex -0.986798678456986 2.5517438084002 3.0410791259199
  endloop
endfacet
facet normal -2.12430243563112e-031 3.79292654545315e-016 1.0
  outer loop
    vertex -0.986798678456986 2.5517438084002 3.0410791259199
    vertex 0.986798678456975 2.55174380840021 3.0410791259199
    vertex 1.02160916666666 2.81615571738485 3.0410791259199
  endloop
endfacet
facet normal -2.12430243563112e-031 3.79292654545315e-016 1.0
  outer loop
    vertex -0.986798678456986 2.5517438084002 3.0410791259199
    vertex 1.02160916666666 2.81615571738485 3.0410791259199
    vertex -1.02160916666667 2.81615571738485 3.0410791259199
  endloop
endfacet
facet normal -2.12430243563112e-031 3.79292654545315e-016 1.0
  outer loop
    vertex -1.02160916666667 2.81615571738485 3.0410791259199
    vertex 1.02160916666666 2.81615571738485 3.0410791259199
    vertex 0.986798678456974 3.0805676263695 3.0410791259199
  endloop
endfacet
facet normal -2.12430243563112e-031 3.79292654545315e-016 1.0
  outer loop
    vertex -1.02160916666667 2.81615571738485 3.0410791259199
    vertex 0.986798678456974 3.0805676263695 3.0410791259199
    vertex -0.986798678456986 3.0805676263695 3.0410791259199
  endloop
endfacet
facet normal -2.12430243563112e-031 3.79292654545315e-016 1.0
  outer loop
    vertex -0.986798678456986 3.0805676263695 3.0410791259199
    vertex 0.986798678456974 3.0805676263695 3.0410791259199
    vertex 0.884739491072375 3.32696030071819 3.0410791259199
  endloop
endfacet
facet normal -2.12430243563112e-031 3.79292654545315e-016 1.0
  outer loop
    vertex -0.986798678456986 3.0805676263695 3.0410791259199
    vertex 0.884739491072375 3.32696030071819 3.0410791259199
    vertex -0.884739491072387 3.32696030071819 3.0410791259199
  endloop
endfacet
facet normal -2.12430243563112e-031 3.79292654545315e-016 1.0
  outer loop
    vertex -0.884739491072387 3.32696030071819 3.0410791259199
    vertex 0.884739491072375 3.32696030071819 3.0410791259199
    vertex 0.722386769472338 3.53854248685719 3.0410791259199
  endloop
endfacet
facet normal -2.12430243563112e-031 3.79292654545315e-016 1.0
  outer loop
    vertex -0.884739491072387 3.32696030071819 3.0410791259199
    vertex 0.722386769472338 3.53854248685719 3.0410791259199
    vertex -0.72238676947235 3.53854248685719 3.0410791259199
  endloop
endfacet
facet normal -2.12430243563112e-031 3.79292654545315e-016 1.0
  outer loop
    vertex -0.72238676947235 3.53854248685719 3.0410791259199
    vertex 0.722386769472338 3.53854248685719 3.0410791259199
    vertex 0.510804583333327 3.70089520845724 3.0410791259199
  endloop
endfacet
facet normal -2.12430243563112e-031 3.79292654545315e-016 1.0
  outer loop
    vertex -0.72238676947235 3.53854248685719 3.0410791259199
    vertex 0.510804583333327 3.70089520845724 3.0410791259199
    vertex -0.51080458333334 3.70089520845724 3.0410791259199
  endloop
endfacet
facet normal -2.12430243563112e-031 3.79292654545315e-016 1.0
  outer loop
    vertex -0.51080458333334 3.70089520845724 3.0410791259199
    vertex 0.510804583333327 3.70089520845724 3.0410791259199
    vertex -0.264411908984659 3.80295439584184 3.0410791259199
  endloop
endfacet
facet normal -2.12430243563112e-031 3.79292654545315e-016 1.0
  outer loop
    vertex -0.264411908984659 3.80295439584184 3.0410791259199
    vertex 0.510804583333327 3.70089520845724 3.0410791259199
    vertex 0.264411908984647 3.80295439584184 3.0410791259199
  endloop
endfacet
facet normal -2.12430243563112e-031 3.79292654545315e-016 1.0
  outer loop
    vertex -0.264411908984659 3.80295439584184 3.0410791259199
    vertex 0.264411908984647 3.80295439584184 3.0410791259199
    vertex -6.34492458573277e-015 3.83776488405152 3.0410791259199
  endloop
endfacet
facet normal -0.130526192220052 -0.99144486137381 4.50879486858869e-016
  outer loop
    vertex -0.264411908984658 1.82935703892787 3.0410791259199
    vertex -4.93494134445882e-015 1.79454655071819 2.1654141259199
    vertex -4.93494134445882e-015 1.79454655071819 3.0410791259199
  endloop
endfacet
facet normal -0.130526192220052 -0.99144486137381 4.50879486858869e-016
  outer loop
    vertex -4.93494134445882e-015 1.79454655071819 2.1654141259199
    vertex -0.264411908984658 1.82935703892787 3.0410791259199
    vertex -0.264411908984658 1.82935703892787 2.1654141259199
  endloop
endfacet
facet normal -0.382683432365091 -0.923879532511286 4.20152794943019e-016
  outer loop
    vertex -0.510804583333338 1.93141622631247 3.0410791259199
    vertex -0.264411908984658 1.82935703892787 2.1654141259199
    vertex -0.264411908984658 1.82935703892787 3.0410791259199
  endloop
endfacet
facet normal -0.382683432365091 -0.923879532511286 4.20152794943019e-016
  outer loop
    vertex -0.264411908984658 1.82935703892787 2.1654141259199
    vertex -0.510804583333338 1.93141622631247 3.0410791259199
    vertex -0.510804583333338 1.93141622631247 2.1654141259199
  endloop
endfacet
facet normal -0.60876142900872 -0.793353340291236 3.60793384387126e-016
  outer loop
    vertex -0.722386769472332 2.09376894791252 3.0410791259199
    vertex -0.510804583333338 1.93141622631247 2.1654141259199
    vertex -0.510804583333338 1.93141622631247 3.0410791259199
  endloop
endfacet
facet normal -0.60876142900872 -0.793353340291236 3.60793384387126e-016
  outer loop
    vertex -0.510804583333338 1.93141622631247 2.1654141259199
    vertex -0.722386769472332 2.09376894791252 3.0410791259199
    vertex -0.722386769472349 2.09376894791252 2.1654141259199
  endloop
endfacet
facet normal -0.793353340291233 -0.608761429008724 2.7684650092451e-016
  outer loop
    vertex -0.722386769472332 2.09376894791252 3.0410791259199
    vertex -0.884739491072386 2.30535113405152 2.1654141259199
    vertex -0.722386769472349 2.09376894791252 2.1654141259199
  endloop
endfacet
facet normal -0.793353340291233 -0.608761429008724 2.7684650092451e-016
  outer loop
    vertex -0.884739491072386 2.30535113405152 2.1654141259199
    vertex -0.722386769472332 2.09376894791252 3.0410791259199
    vertex -0.884739491072386 2.30535113405152 3.0410791259199
  endloop
endfacet
facet normal -0.923879532511287 -0.382683432365088 1.7403298593436e-016
  outer loop
    vertex -0.884739491072386 2.30535113405152 3.0410791259199
    vertex -0.986798678456986 2.5517438084002 2.1654141259199
    vertex -0.884739491072386 2.30535113405152 2.1654141259199
  endloop
endfacet
facet normal -0.923879532511287 -0.382683432365088 1.7403298593436e-016
  outer loop
    vertex -0.986798678456986 2.5517438084002 2.1654141259199
    vertex -0.884739491072386 2.30535113405152 3.0410791259199
    vertex -0.986798678456986 2.5517438084002 3.0410791259199
  endloop
endfacet
facet normal -0.99144486137381 -0.130526192220053 5.93594105558944e-017
  outer loop
    vertex -0.986798678456986 2.5517438084002 3.0410791259199
    vertex -1.02160916666667 2.81615571738485 2.1654141259199
    vertex -0.986798678456986 2.5517438084002 2.1654141259199
  endloop
endfacet
facet normal -0.99144486137381 -0.130526192220053 5.93594105558944e-017
  outer loop
    vertex -1.02160916666667 2.81615571738485 2.1654141259199
    vertex -0.986798678456986 2.5517438084002 3.0410791259199
    vertex -1.02160916666667 2.81615571738485 3.0410791259199
  endloop
endfacet
facet normal -0.99144486137381 0.130526192220052 -5.93594105558935e-017
  outer loop
    vertex -1.02160916666667 2.81615571738485 3.0410791259199
    vertex -0.986798678456986 3.0805676263695 2.1654141259199
    vertex -1.02160916666667 2.81615571738485 2.1654141259199
  endloop
endfacet
facet normal -0.99144486137381 0.130526192220052 -5.93594105558935e-017
  outer loop
    vertex -0.986798678456986 3.0805676263695 2.1654141259199
    vertex -1.02160916666667 2.81615571738485 3.0410791259199
    vertex -0.986798678456986 3.0805676263695 3.0410791259199
  endloop
endfacet
facet normal -0.923879532511288 0.382683432365087 -1.74032985934359e-016
  outer loop
    vertex -0.986798678456986 3.0805676263695 3.0410791259199
    vertex -0.884739491072387 3.32696030071819 2.1654141259199
    vertex -0.986798678456986 3.0805676263695 2.1654141259199
  endloop
endfacet
facet normal -0.923879532511288 0.382683432365087 -1.74032985934359e-016
  outer loop
    vertex -0.884739491072387 3.32696030071819 2.1654141259199
    vertex -0.986798678456986 3.0805676263695 3.0410791259199
    vertex -0.884739491072387 3.32696030071819 3.0410791259199
  endloop
endfacet
facet normal -0.793353340291234 0.608761429008722 -2.76846500924509e-016
  outer loop
    vertex -0.884739491072387 3.32696030071819 2.1654141259199
    vertex -0.72238676947235 3.53854248685719 3.0410791259199
    vertex -0.72238676947235 3.53854248685719 2.1654141259199
  endloop
endfacet
facet normal -0.793353340291234 0.608761429008722 -2.76846500924509e-016
  outer loop
    vertex -0.72238676947235 3.53854248685719 3.0410791259199
    vertex -0.884739491072387 3.32696030071819 2.1654141259199
    vertex -0.884739491072387 3.32696030071819 3.0410791259199
  endloop
endfacet
facet normal -0.608761429008721 0.793353340291235 -3.60793384387125e-016
  outer loop
    vertex -0.72238676947235 3.53854248685719 2.1654141259199
    vertex -0.51080458333334 3.70089520845724 3.0410791259199
    vertex -0.510804583333339 3.70089520845724 2.1654141259199
  endloop
endfacet
facet normal -0.608761429008721 0.793353340291235 -3.60793384387125e-016
  outer loop
    vertex -0.51080458333334 3.70089520845724 3.0410791259199
    vertex -0.72238676947235 3.53854248685719 2.1654141259199
    vertex -0.72238676947235 3.53854248685719 3.0410791259199
  endloop
endfacet
facet normal -0.382683432365092 0.923879532511286 -4.20152794943018e-016
  outer loop
    vertex -0.510804583333339 3.70089520845724 2.1654141259199
    vertex -0.264411908984659 3.80295439584184 3.0410791259199
    vertex -0.264411908984659 3.80295439584184 2.1654141259199
  endloop
endfacet
facet normal -0.382683432365092 0.923879532511286 -4.20152794943018e-016
  outer loop
    vertex -0.264411908984659 3.80295439584184 3.0410791259199
    vertex -0.510804583333339 3.70089520845724 2.1654141259199
    vertex -0.51080458333334 3.70089520845724 3.0410791259199
  endloop
endfacet
facet normal -0.130526192220053 0.99144486137381 -4.50879486858868e-016
  outer loop
    vertex -0.264411908984659 3.80295439584184 2.1654141259199
    vertex -6.34492458573277e-015 3.83776488405152 3.0410791259199
    vertex -6.34492458573277e-015 3.83776488405152 2.1654141259199
  endloop
endfacet
facet normal -0.130526192220053 0.99144486137381 -4.50879486858868e-016
  outer loop
    vertex -6.34492458573277e-015 3.83776488405152 3.0410791259199
    vertex -0.264411908984659 3.80295439584184 2.1654141259199
    vertex -0.264411908984659 3.80295439584184 3.0410791259199
  endloop
endfacet
facet normal -0.866025403784447 -8.60591574954639e-016 -0.499999999999985
  outer loop
    vertex -0.583776666666529 5.50678542016494 0.498315971351713
    vertex -0.291888333333241 54.2085141451372 -0.00724945211824818
    vertex -0.291888333333195 5.50678542016494 -0.00724945211822603
  endloop
endfacet
facet normal -0.866025403784447 -8.60591574954639e-016 -0.499999999999985
  outer loop
    vertex -0.291888333333241 54.2085141451372 -0.00724945211824818
    vertex -0.583776666666529 5.50678542016494 0.498315971351713
    vertex -0.583776666666558 54.2085141451372 0.498315971351691
  endloop
endfacet
facet normal -2.12430243563113e-031 3.79292654545315e-016 1.0
  outer loop
    vertex 0.291888333333426 54.2085141451372 1.00388139482161
    vertex -0.291888333333195 5.50678542016494 1.00388139482164
    vertex 0.291888333333472 5.50678542016494 1.00388139482164
  endloop
endfacet
facet normal -2.12430243563113e-031 3.79292654545315e-016 1.0
  outer loop
    vertex -0.291888333333195 5.50678542016494 1.00388139482164
    vertex 0.291888333333426 54.2085141451372 1.00388139482161
    vertex -0.291888333333225 54.2085141451372 1.00388139482161
  endloop
endfacet
facet normal 0.866025403784441 4.81298920409327e-016 -0.499999999999996
  outer loop
    vertex 0.583776666666759 54.2085141451372 0.498315971351691
    vertex 0.291888333333455 5.50678542016494 -0.00724945211822603
    vertex 0.291888333333426 54.2085141451372 -0.00724945211824818
  endloop
endfacet
facet normal 0.866025403784441 4.81298920409327e-016 -0.499999999999996
  outer loop
    vertex 0.291888333333455 5.50678542016494 -0.00724945211822603
    vertex 0.583776666666759 54.2085141451372 0.498315971351691
    vertex 0.583776666666788 5.50678542016494 0.498315971351713
  endloop
endfacet
facet normal 0.86602540378444 8.60591574954638e-016 0.499999999999998
  outer loop
    vertex 0.291888333333426 54.2085141451372 1.00388139482161
    vertex 0.583776666666788 5.50678542016494 0.498315971351713
    vertex 0.583776666666759 54.2085141451372 0.498315971351691
  endloop
endfacet
facet normal 0.86602540378444 8.60591574954638e-016 0.499999999999998
  outer loop
    vertex 0.583776666666788 5.50678542016494 0.498315971351713
    vertex 0.291888333333426 54.2085141451372 1.00388139482161
    vertex 0.291888333333472 5.50678542016494 1.00388139482164
  endloop
endfacet
facet normal 2.12430243563113e-031 -3.79292654545315e-016 -1.0
  outer loop
    vertex -0.291888333333241 54.2085141451372 -0.00724945211824818
    vertex 0.291888333333455 5.50678542016494 -0.00724945211822603
    vertex -0.291888333333195 5.50678542016494 -0.00724945211822603
  endloop
endfacet
facet normal 2.12430243563113e-031 -3.79292654545315e-016 -1.0
  outer loop
    vertex 0.291888333333455 5.50678542016494 -0.00724945211822603
    vertex -0.291888333333241 54.2085141451372 -0.00724945211824818
    vertex 0.291888333333426 54.2085141451372 -0.00724945211824818
  endloop
endfacet
facet normal -0.866025403784434 -4.81298920409317e-016 0.500000000000008
  outer loop
    vertex -0.291888333333195 5.50678542016494 1.00388139482164
    vertex -0.583776666666558 54.2085141451372 0.498315971351691
    vertex -0.583776666666529 5.50678542016494 0.498315971351713
  endloop
endfacet
facet normal -0.866025403784434 -4.81298920409317e-016 0.500000000000008
  outer loop
    vertex -0.583776666666558 54.2085141451372 0.498315971351691
    vertex -0.291888333333195 5.50678542016494 1.00388139482164
    vertex -0.291888333333225 54.2085141451372 1.00388139482161
  endloop
endfacet
facet normal -7.74740838721385e-016 1.0 -4.54770108177373e-016
  outer loop
    vertex 0.291888333333426 54.2085141451372 -0.00724945211824818
    vertex 0.291888333333426 54.2085141451372 1.00388139482161
    vertex 0.583776666666759 54.2085141451372 0.498315971351691
  endloop
endfacet
facet normal -7.74740838721385e-016 1.0 -4.54770108177373e-016
  outer loop
    vertex 0.291888333333426 54.2085141451372 1.00388139482161
    vertex 0.291888333333426 54.2085141451372 -0.00724945211824818
    vertex -0.291888333333241 54.2085141451372 -0.00724945211824818
  endloop
endfacet
facet normal -7.74740838721385e-016 1.0 -4.54770108177373e-016
  outer loop
    vertex 0.291888333333426 54.2085141451372 1.00388139482161
    vertex -0.291888333333241 54.2085141451372 -0.00724945211824818
    vertex -0.291888333333225 54.2085141451372 1.00388139482161
  endloop
endfacet
facet normal -7.74740838721385e-016 1.0 -4.54770108177373e-016
  outer loop
    vertex -0.291888333333225 54.2085141451372 1.00388139482161
    vertex -0.291888333333241 54.2085141451372 -0.00724945211824818
    vertex -0.583776666666558 54.2085141451372 0.498315971351691
  endloop
endfacet
facet normal 7.74740838721385e-016 -1.0 4.54770108177373e-016
  outer loop
    vertex 0.291888333333472 5.50678542016494 1.00388139482164
    vertex 0.291888333333455 5.50678542016494 -0.00724945211822603
    vertex 0.583776666666788 5.50678542016494 0.498315971351713
  endloop
endfacet
facet normal 7.74740838721385e-016 -1.0 4.54770108177373e-016
  outer loop
    vertex 0.291888333333455 5.50678542016494 -0.00724945211822603
    vertex 0.291888333333472 5.50678542016494 1.00388139482164
    vertex -0.291888333333195 5.50678542016494 1.00388139482164
  endloop
endfacet
facet normal 7.74740838721385e-016 -1.0 4.54770108177373e-016
  outer loop
    vertex 0.291888333333455 5.50678542016494 -0.00724945211822603
    vertex -0.291888333333195 5.50678542016494 1.00388139482164
    vertex -0.291888333333195 5.50678542016494 -0.00724945211822603
  endloop
endfacet
facet normal 7.74740838721385e-016 -1.0 4.54770108177373e-016
  outer loop
    vertex -0.291888333333195 5.50678542016494 -0.00724945211822603
    vertex -0.291888333333195 5.50678542016494 1.00388139482164
    vertex -0.583776666666529 5.50678542016494 0.498315971351713
  endloop
endfacet
endsolid Untitled-68780f86
